<svg width="20" height="16" viewBox="0 0 20 16" fill="none" xmlns="http://www.w3.org/2000/svg">
<path d="M17.7393 5.625C17.1765 5.26786 16.4461 5.02536 15.6468 4.92714C15.4093 3.53071 14.7818 2.33714 13.8157 1.45357C12.7911 0.516071 11.4361 0 10 0C8.73753 0 7.57146 0.395714 6.62968 1.14286C5.91498 1.71211 5.3581 2.45503 5.01218 3.30071C3.91682 3.455 2.97646 3.8225 2.27253 4.37214C1.34646 5.10107 0.857178 6.12714 0.857178 7.34286C0.857178 9.75 2.85432 11.4286 5.71432 11.4286H9.42861V6.28571H10.5715V11.4286H15C17.5943 11.4286 19.1429 10.2057 19.1429 8.15714C19.1429 7.08393 18.6575 6.20821 17.7393 5.625ZM9.42861 13.8364L7.71361 12.1071L6.90611 12.9286L10 16L13.094 12.9286L12.2865 12.1071L10.5715 13.8364V11.4286H9.42861V13.8364Z" fill="#090909"/>
</svg>
