<svg width="30" height="31" viewBox="0 0 30 31" fill="none" xmlns="http://www.w3.org/2000/svg">
<rect y="0.5" width="30" height="30" rx="5" fill="white"/>
<path d="M19.5 11.8333C20.6051 11.8333 21.6649 11.3943 22.4463 10.6129C23.2277 9.83154 23.6667 8.77173 23.6667 7.66667C23.6667 6.5616 23.2277 5.50179 22.4463 4.72039C21.6649 3.93899 20.6051 3.5 19.5 3.5H11.1667C10.0616 3.5 9.00179 3.93899 8.22039 4.72039C7.43899 5.50179 7 6.5616 7 7.66667C7 8.77173 7.43899 9.83154 8.22039 10.6129C9.00179 11.3943 10.0616 11.8333 11.1667 11.8333C10.0616 11.8333 9.00179 12.2723 8.22039 13.0537C7.43899 13.8351 7 14.8949 7 16C7 17.1051 7.43899 18.1649 8.22039 18.9463C9.00179 19.7277 10.0616 20.1667 11.1667 20.1667C10.3426 20.1667 9.537 20.411 8.85179 20.8689C8.16659 21.3267 7.63254 21.9775 7.31717 22.7388C7.00181 23.5002 6.91929 24.338 7.08006 25.1462C7.24083 25.9545 7.63767 26.6969 8.22039 27.2796C8.80311 27.8623 9.54554 28.2592 10.3538 28.4199C11.162 28.5807 11.9998 28.4982 12.7612 28.1828C13.5225 27.8675 14.1733 27.3334 14.6311 26.6482C15.089 25.963 15.3333 25.1574 15.3333 24.3333V11.8333H19.5Z" fill="black"/>
<path d="M19.5 20.1666C21.8012 20.1666 23.6667 18.3011 23.6667 15.9999C23.6667 13.6987 21.8012 11.8333 19.5 11.8333C17.1989 11.8333 15.3334 13.6987 15.3334 15.9999C15.3334 18.3011 17.1989 20.1666 19.5 20.1666Z" fill="black"/>
</svg>
