<svg width="29" height="29" viewBox="0 0 29 29" fill="none" xmlns="http://www.w3.org/2000/svg">
<rect x="0.5" y="0.25" width="28.5" height="28.5" rx="5.91667" fill="#1E1E1E"/>
<g clip-path="url(#clip0_622_1812)">
<path d="M15.1208 14.6813C15.1208 13.9359 15.4169 13.2211 15.944 12.694C16.4711 12.1669 17.1859 11.8708 17.9313 11.8708C18.6766 11.8708 19.3915 12.1669 19.9185 12.694C20.4456 13.2211 20.7417 13.9359 20.7417 14.6813C20.7417 15.4266 20.4456 16.1415 19.9185 16.6685C19.3915 17.1956 18.6766 17.4917 17.9313 17.4917C17.1859 17.4917 16.4711 17.1956 15.944 16.6685C15.4169 16.1415 15.1208 15.4266 15.1208 14.6813Z" fill="#1ABCFE"/>
<path d="M9.5 20.3021C9.5 19.5567 9.7961 18.8418 10.3232 18.3148C10.8502 17.7877 11.565 17.4916 12.3104 17.4916H15.1208V20.3021C15.1208 21.0474 14.8247 21.7623 14.2977 22.2893C13.7706 22.8164 13.0558 23.1125 12.3104 23.1125C11.565 23.1125 10.8502 22.8164 10.3232 22.2893C9.7961 21.7623 9.5 21.0474 9.5 20.3021V20.3021Z" fill="#0ACF83"/>
<path d="M15.1208 6.25V11.8708H17.9313C18.6766 11.8708 19.3915 11.5747 19.9185 11.0477C20.4456 10.5206 20.7417 9.80579 20.7417 9.06042C20.7417 8.31505 20.4456 7.60021 19.9185 7.07315C19.3915 6.5461 18.6766 6.25 17.9313 6.25H15.1208Z" fill="#FF7262"/>
<path d="M9.5 9.06042C9.5 9.80579 9.7961 10.5206 10.3232 11.0477C10.8502 11.5747 11.565 11.8708 12.3104 11.8708H15.1208V6.25H12.3104C11.565 6.25 10.8502 6.5461 10.3232 7.07315C9.7961 7.60021 9.5 8.31505 9.5 9.06042V9.06042Z" fill="#F24E1E"/>
<path d="M9.5 14.6813C9.5 15.4266 9.7961 16.1415 10.3232 16.6685C10.8502 17.1956 11.565 17.4917 12.3104 17.4917H15.1208V11.8708H12.3104C11.565 11.8708 10.8502 12.1669 10.3232 12.694C9.7961 13.2211 9.5 13.9359 9.5 14.6813V14.6813Z" fill="#A259FF"/>
</g>
<defs>
<clipPath id="clip0_622_1812">
<rect width="11.2417" height="16.8625" fill="white" transform="translate(9.5 6.25)"/>
</clipPath>
</defs>
</svg>
