<svg width="33" height="24" viewBox="0 0 33 24" fill="none" xmlns="http://www.w3.org/2000/svg">
<mask id="mask0_171_169" style="mask-type:luminance" maskUnits="userSpaceOnUse" x="0" y="0" width="33" height="24">
<path d="M0.104004 0H32.104V24H0.104004V0Z" fill="white"/>
</mask>
<g mask="url(#mask0_171_169)">
<path fill-rule="evenodd" clip-rule="evenodd" d="M0.104004 0V24H32.104V0H0.104004Z" fill="#FFB400"/>
<mask id="mask1_171_169" style="mask-type:luminance" maskUnits="userSpaceOnUse" x="0" y="0" width="33" height="24">
<path fill-rule="evenodd" clip-rule="evenodd" d="M0.104004 0V24H32.104V0H0.104004Z" fill="white"/>
</mask>
<g mask="url(#mask1_171_169)">
<path fill-rule="evenodd" clip-rule="evenodd" d="M0.104004 0V6H32.104V0H0.104004Z" fill="#C51918"/>
<path fill-rule="evenodd" clip-rule="evenodd" d="M0.104004 18V24H32.104V18H0.104004Z" fill="#C51918"/>
<path d="M5.1123 10.272H6.2323V16.096H5.1123V10.272Z" fill="#F1F9FF"/>
<path fill-rule="evenodd" clip-rule="evenodd" d="M6.68006 9.26392H4.66406V9.82392H5.00006V10.2719H6.34406V9.82392H6.68006V9.26392Z" fill="#C88A02"/>
<path fill-rule="evenodd" clip-rule="evenodd" d="M6.34406 16.4319H6.68006V16.9919H4.66406V16.4319H5.00006V15.9839H6.34406V16.4319Z" fill="#C88A02"/>
<path fill-rule="evenodd" clip-rule="evenodd" d="M5.67218 9.37592C5.91591 9.37592 5.94068 9.28414 6.08448 9.14707C6.19613 9.04063 6.45618 8.90862 6.45618 8.75992C6.45618 8.41971 6.10517 8.14392 5.67218 8.14392C5.23919 8.14392 4.88818 8.41971 4.88818 8.75992C4.88818 8.92559 5.06726 9.03636 5.20266 9.14707C5.34532 9.26371 5.45004 9.37592 5.67218 9.37592Z" fill="#AD1619"/>
<path fill-rule="evenodd" clip-rule="evenodd" d="M4.66406 16.9919H6.68006V17.8879C6.68006 17.8879 6.42806 17.7759 6.17606 17.7759C5.92406 17.7759 5.67206 17.8879 5.67206 17.8879C5.67206 17.8879 5.42006 17.7759 5.16806 17.7759C4.91606 17.7759 4.66406 17.8879 4.66406 17.8879V16.9919Z" fill="#005BBF"/>
<mask id="mask2_171_169" style="mask-type:luminance" maskUnits="userSpaceOnUse" x="4" y="16" width="3" height="2">
<path fill-rule="evenodd" clip-rule="evenodd" d="M4.66406 16.9919H6.68006V17.8879C6.68006 17.8879 6.42806 17.7759 6.17606 17.7759C5.92406 17.7759 5.67206 17.8879 5.67206 17.8879C5.67206 17.8879 5.42006 17.7759 5.16806 17.7759C4.91606 17.7759 4.66406 17.8879 4.66406 17.8879V16.9919Z" fill="white"/>
</mask>
<g mask="url(#mask2_171_169)">
<path d="M4.64557 17.7119L4.60156 17.6046C4.78314 17.5238 4.96537 17.4833 5.14787 17.4833C5.26578 17.4833 5.32735 17.4997 5.43202 17.5463C5.52396 17.5872 5.57162 17.5999 5.67217 17.5999C5.77272 17.5999 5.82038 17.5872 5.91232 17.5463C6.01699 17.4997 6.07856 17.4833 6.19647 17.4833C6.37897 17.4833 6.5612 17.5238 6.74278 17.6046L6.69877 17.7119C6.53082 17.6372 6.36351 17.5999 6.19647 17.5999C6.09592 17.5999 6.04826 17.6127 5.95632 17.6536C5.85165 17.7002 5.79008 17.7166 5.67217 17.7166C5.55426 17.7166 5.49269 17.7002 5.38802 17.6536C5.29608 17.6127 5.24842 17.5999 5.14787 17.5999C4.98083 17.5999 4.81352 17.6372 4.64557 17.7119Z" fill="white"/>
<path d="M4.64557 17.3759L4.60156 17.2686C4.78314 17.1878 4.96537 17.1472 5.14787 17.1472C5.26578 17.1472 5.32735 17.1637 5.43202 17.2102C5.52396 17.2512 5.57162 17.2639 5.67217 17.2639C5.77272 17.2639 5.82038 17.2512 5.91232 17.2102C6.01699 17.1637 6.07856 17.1472 6.19647 17.1472C6.37897 17.1472 6.5612 17.1878 6.74278 17.2686L6.69877 17.3759C6.53082 17.3011 6.36351 17.2639 6.19647 17.2639C6.09592 17.2639 6.04826 17.2766 5.95632 17.3175C5.85165 17.3641 5.79008 17.3806 5.67217 17.3806C5.55426 17.3806 5.49269 17.3641 5.38802 17.3175C5.29608 17.2766 5.24842 17.2639 5.14787 17.2639C4.98083 17.2639 4.81352 17.3011 4.64557 17.3759Z" fill="white"/>
</g>
<path d="M16.0879 10.272H17.2079V16.096H16.0879V10.272Z" fill="#F1F9FF"/>
<path fill-rule="evenodd" clip-rule="evenodd" d="M17.6561 9.26392H15.6401V9.82392H15.9761V10.2719H17.3201V9.82392H17.6561V9.26392Z" fill="#C88A02"/>
<path fill-rule="evenodd" clip-rule="evenodd" d="M17.3201 16.4319H17.6561V16.9919H15.6401V16.4319H15.9761V15.9839H17.3201V16.4319Z" fill="#C88A02"/>
<path fill-rule="evenodd" clip-rule="evenodd" d="M16.6483 9.37592C16.892 9.37592 16.9168 9.28414 17.0606 9.14707C17.1723 9.04063 17.4323 8.90862 17.4323 8.75992C17.4323 8.41971 17.0813 8.14392 16.6483 8.14392C16.2153 8.14392 15.8643 8.41971 15.8643 8.75992C15.8643 8.92559 16.0434 9.03636 16.1788 9.14707C16.3214 9.26371 16.4262 9.37592 16.6483 9.37592Z" fill="#AD1619"/>
<path fill-rule="evenodd" clip-rule="evenodd" d="M15.6401 16.9919H17.6561V17.8879C17.6561 17.8879 17.4041 17.7759 17.1521 17.7759C16.9001 17.7759 16.6481 17.8879 16.6481 17.8879C16.6481 17.8879 16.3961 17.7759 16.1441 17.7759C15.8921 17.7759 15.6401 17.8879 15.6401 17.8879V16.9919Z" fill="#005BBF"/>
<mask id="mask3_171_169" style="mask-type:luminance" maskUnits="userSpaceOnUse" x="15" y="16" width="3" height="2">
<path fill-rule="evenodd" clip-rule="evenodd" d="M15.6401 16.9919H17.6561V17.8879C17.6561 17.8879 17.4041 17.7759 17.1521 17.7759C16.9001 17.7759 16.6481 17.8879 16.6481 17.8879C16.6481 17.8879 16.3961 17.7759 16.1441 17.7759C15.8921 17.7759 15.6401 17.8879 15.6401 17.8879V16.9919Z" fill="white"/>
</mask>
<g mask="url(#mask3_171_169)">
<path d="M15.6221 17.7119L15.5781 17.6046C15.7596 17.5238 15.9419 17.4833 16.1244 17.4833C16.2423 17.4833 16.3038 17.4997 16.4085 17.5463C16.5005 17.5872 16.5481 17.5999 16.6487 17.5999C16.7492 17.5999 16.7969 17.5872 16.8888 17.5463C16.9935 17.4997 17.0551 17.4833 17.173 17.4833C17.3555 17.4833 17.5377 17.5238 17.7193 17.6046L17.6753 17.7119C17.5073 17.6372 17.34 17.5999 17.173 17.5999C17.0724 17.5999 17.0248 17.6127 16.9328 17.6536C16.8281 17.7002 16.7666 17.7166 16.6487 17.7166C16.5308 17.7166 16.4692 17.7002 16.3645 17.6536C16.2726 17.6127 16.2249 17.5999 16.1244 17.5999C15.9573 17.5999 15.79 17.6372 15.6221 17.7119Z" fill="white"/>
<path d="M15.6221 17.3759L15.5781 17.2686C15.7596 17.1878 15.9419 17.1472 16.1244 17.1472C16.2423 17.1472 16.3038 17.1637 16.4085 17.2102C16.5005 17.2512 16.5481 17.2639 16.6487 17.2639C16.7492 17.2639 16.7969 17.2512 16.8888 17.2102C16.9935 17.1637 17.0551 17.1472 17.173 17.1472C17.3555 17.1472 17.5377 17.1878 17.7193 17.2686L17.6753 17.3759C17.5073 17.3011 17.34 17.2639 17.173 17.2639C17.0724 17.2639 17.0248 17.2766 16.9328 17.3175C16.8281 17.3641 16.7666 17.3806 16.6487 17.3806C16.5308 17.3806 16.4692 17.3641 16.3645 17.3175C16.2726 17.2766 16.2249 17.2639 16.1244 17.2639C15.9573 17.2639 15.79 17.3011 15.6221 17.3759Z" fill="white"/>
</g>
<path fill-rule="evenodd" clip-rule="evenodd" d="M5.09225 15.6799C5.29418 15.4351 5.4071 15.2124 5.4071 14.9758C5.4071 14.8267 5.36271 14.6979 5.28495 14.5926L5.29809 14.5867C5.29688 14.5873 5.51961 14.4902 5.59715 14.453C5.74131 14.3839 5.8683 14.3107 5.99213 14.2206C6.07118 14.1631 6.1771 14.1005 6.33856 14.0138C6.36646 13.9988 6.44208 13.9587 6.49031 13.9331L6.53125 13.9114C6.60973 13.8695 6.66816 13.8374 6.72245 13.8059C6.89162 13.7078 7.00342 13.6267 7.08892 13.5182C7.29144 13.2614 7.24939 12.9133 6.9656 12.7201C6.82656 12.6254 6.63893 12.5711 6.3639 12.5284L6.30703 12.5196C6.21308 12.505 6.03255 12.4771 5.97055 12.4674C5.83893 12.4467 5.7215 12.4274 5.61679 12.4091C6.30536 12.2946 7.2886 12.3367 7.7211 12.56L8.13215 11.7638C7.25081 11.3088 5.24268 11.3553 4.49254 11.8718C3.94235 12.2508 4.01618 12.8235 4.58863 13.0702C4.82783 13.1732 5.13966 13.2416 5.71671 13.3343C5.62001 13.3904 5.53984 13.4417 5.46514 13.496C5.38938 13.5511 5.30822 13.5979 5.20977 13.6451C5.16269 13.6676 5.0233 13.7288 4.95938 13.7569L4.92721 13.7711C4.46093 13.9831 4.23463 14.2764 4.30225 14.8059L4.33886 15.0925L4.40452 15.1126L5.09225 15.6799ZM4.51587 14.9392L4.51445 14.9433L4.51553 14.9404L4.51587 14.9392ZM16.8102 14.9758C16.8102 15.2124 16.9231 15.4351 17.125 15.6799L17.8128 15.1126L17.8784 15.0925L17.915 14.8059C17.9827 14.2764 17.7564 13.9831 17.2901 13.7711L17.258 13.7569C17.1941 13.7289 17.0546 13.6676 17.0075 13.6451C16.9091 13.5979 16.8279 13.5511 16.7522 13.496C16.6775 13.4417 16.5973 13.3904 16.5006 13.3343C17.0776 13.2416 17.3895 13.1732 17.6287 13.0702C18.2011 12.8235 18.2749 12.2508 17.7247 11.8718C16.9746 11.3553 14.9665 11.3088 14.0851 11.7638L14.4962 12.56C14.9287 12.3367 15.9119 12.2946 16.6005 12.4091C16.4958 12.4274 16.3784 12.4467 16.2467 12.4674C16.1848 12.4771 16.0043 12.505 15.9103 12.5195L15.8534 12.5284C15.5784 12.5711 15.3907 12.6254 15.2517 12.7201C14.9679 12.9133 14.9259 13.2614 15.1284 13.5182C15.2139 13.6267 15.3257 13.7078 15.4948 13.8059C15.5491 13.8374 15.6076 13.8695 15.686 13.9114L15.7268 13.933C15.775 13.9586 15.8508 13.9988 15.8787 14.0138C16.0402 14.1005 16.1461 14.1631 16.2252 14.2206C16.349 14.3107 16.476 14.3839 16.6201 14.453C16.6977 14.4902 16.9204 14.5873 16.9192 14.5867L16.9323 14.5926C16.8546 14.6979 16.8102 14.8267 16.8102 14.9758Z" fill="#AD1619"/>
<path d="M6.02765 12.3999L6.35824 12.4683V12.961C6.00614 13.242 5.1123 13.7155 5.1123 13.7155V12.3999H6.02765Z" fill="#F1F9FF"/>
<path d="M16.4185 12.3999L16.0879 12.4683V12.961C16.44 13.242 17.3339 13.7155 17.3339 13.7155V12.3999H16.4185Z" fill="#F1F9FF"/>
<path fill-rule="evenodd" clip-rule="evenodd" d="M14.8801 7.2059V7.04192C14.3041 6.62847 13.7008 6.42175 13.0703 6.42175C12.4659 6.15428 11.8541 6.05045 11.2349 6.11027L11.2352 6.10739C10.3042 6.0163 9.36598 6.42175 9.36598 6.42175C8.42027 6.42175 7.55615 7.04192 7.55615 7.04192V7.2059L8.68578 8.34043C8.68578 8.34043 9.00374 9.43243 11.2306 9.17578V9.17855C11.2306 9.17855 12.7049 9.13831 12.8085 9.10385C12.8496 9.09018 12.8923 9.07774 12.9358 9.06502C13.2246 8.98071 13.5543 8.88446 13.7505 8.34043L14.8801 7.2059ZM11.2306 6.16044C11.1984 6.53816 11.0149 8.81509 11.2306 9.1681V6.16044Z" fill="#AD1619"/>
<path fill-rule="evenodd" clip-rule="evenodd" d="M8.41798 8.14951L8.41873 8.14606L7.62402 7.39837L7.70076 7.3168L8.44649 8.01839L8.46557 7.93062C8.58757 7.95715 8.67674 7.9669 8.72872 7.96138V7.80918L8.89402 7.89864C8.97533 7.94264 9.09177 7.95448 9.24514 7.92952C9.35778 7.91119 9.43379 7.78037 9.45864 7.5016L9.50881 6.93884L9.67711 7.47819C9.75327 7.72225 9.86945 7.82984 10.0349 7.82984C10.1964 7.82984 10.2613 7.77061 10.2685 7.62133L10.2888 7.19795L10.4803 7.57611C10.5492 7.71235 10.6444 7.77416 10.7796 7.77416C10.9731 7.77416 11.1023 7.61288 11.1023 7.35984H11.1059H11.3263H11.3299C11.3299 7.61288 11.4592 7.77416 11.6526 7.77416C11.7879 7.77416 11.883 7.71235 11.952 7.57611L12.1434 7.19795L12.1638 7.62133C12.1709 7.77061 12.2359 7.82984 12.3974 7.82984C12.5628 7.82984 12.679 7.72225 12.7551 7.47819L12.9234 6.93884L12.9736 7.5016C12.9985 7.78037 13.0745 7.91119 13.1871 7.92952C13.3405 7.95448 13.4569 7.94264 13.5382 7.89864L13.7035 7.80918V7.96138C13.7555 7.9669 13.8447 7.95715 13.9667 7.93062L14.0021 8.09349L14.8276 7.3168L14.9044 7.39837L13.8771 8.36488C13.7272 8.64091 13.6517 8.8231 13.6517 8.89878C13.6517 9.01424 13.3513 9.08277 12.7651 9.15316C12.3058 9.20831 11.7638 9.24532 11.3204 9.25085L11.2642 9.25139L11.208 9.25157C10.7646 9.24604 10.2226 9.20831 9.76332 9.15316C9.17706 9.08277 8.87668 9.01424 8.87668 8.89878C8.87668 8.88446 8.87397 8.86634 8.86858 8.84448C8.80946 8.7692 8.7679 8.64603 8.74024 8.53494C8.71429 8.48299 8.68464 8.42625 8.65132 8.36488L8.42372 8.15075L8.41798 8.14951ZM13.9234 8.16754C13.74 8.20001 13.6075 8.19673 13.5372 8.13951C13.4273 8.1715 13.2984 8.17457 13.1511 8.15061C12.9939 8.12503 12.8844 8.02044 12.8185 7.84694C12.7325 7.95652 12.6237 8.02417 12.4935 8.04605C13.2102 8.14769 13.7122 8.29057 13.7122 8.29057C13.7122 8.29057 13.6999 8.39671 13.6698 8.52151C13.7016 8.45618 13.7394 8.38358 13.783 8.30346L13.7938 8.28946L13.9234 8.16754ZM12.1553 8.00347C12.0929 7.9725 12.0431 7.92759 12.0072 7.86971C11.9537 7.9169 11.893 7.95142 11.8255 7.97271C11.9381 7.98133 12.0483 7.99174 12.1553 8.00347ZM11.4301 7.95092C11.3428 7.9106 11.2703 7.84604 11.2161 7.76331C11.1623 7.84546 11.0904 7.90969 11.004 7.95006C11.0552 7.94854 11.1067 7.94746 11.1584 7.94688L11.2033 7.9465L11.2482 7.94637C11.3092 7.94706 11.3699 7.94893 11.4301 7.95092ZM8.72645 8.28179L8.62203 8.18355C8.74738 8.19598 8.84016 8.18419 8.89503 8.13951C9.00496 8.1715 9.1339 8.17457 9.28111 8.15061C9.43835 8.12503 9.54785 8.02044 9.61374 7.84694C9.69726 7.95335 9.80223 8.02022 9.92752 8.04403C9.30958 8.13085 8.84853 8.24897 8.72645 8.28179ZM10.6019 7.97115C10.4934 7.97921 10.3872 7.98896 10.2839 7.99997C10.343 7.96915 10.3904 7.92545 10.4251 7.86971C10.4772 7.91577 10.5363 7.94975 10.6019 7.97115ZM13.3573 8.90097C13.4357 8.9377 13.4986 8.90107 13.5484 8.83075C13.5441 8.85017 13.5414 8.86773 13.5403 8.88345C13.5337 8.88775 13.5236 8.89293 13.5104 8.89849C13.4735 8.914 13.4172 8.93052 13.3439 8.94724C13.1998 8.98011 12.9948 9.01278 12.7517 9.04196C12.2771 9.09894 11.7128 9.13644 11.2642 9.13938C10.8155 9.13644 10.2512 9.09894 9.77668 9.04196C9.53364 9.01278 9.32858 8.98011 9.18451 8.94724C9.12308 8.93323 9.07355 8.91935 9.03741 8.90609C9.04138 8.90458 9.0454 8.90288 9.04947 8.90097C9.29413 8.78649 10.912 8.67905 11.2033 8.66051C11.4947 8.67905 13.1126 8.78649 13.3573 8.90097Z" fill="#C88A02"/>
<path fill-rule="evenodd" clip-rule="evenodd" d="M11.2164 5.34705C11.4019 5.34705 11.5524 5.19662 11.5524 5.01105C11.5524 4.82548 11.4019 4.67505 11.2164 4.67505C11.0308 4.67505 10.8804 4.82548 10.8804 5.01105C10.8804 5.19662 11.0308 5.34705 11.2164 5.34705Z" fill="#005BBF"/>
<path fill-rule="evenodd" clip-rule="evenodd" d="M10.998 6.99679C11.0051 7.03367 11.0163 7.068 11.0305 7.09859C10.9871 7.08202 10.9356 7.07241 10.8803 7.07241C10.7257 7.07241 10.6003 7.14763 10.6003 7.24041C10.6003 7.3332 10.7257 7.40841 10.8803 7.40841C11.0349 7.40841 11.1603 7.3332 11.1603 7.24041C11.1603 7.3332 11.2857 7.40841 11.4403 7.40841C11.5949 7.40841 11.7203 7.3332 11.7203 7.24041C11.7203 7.14763 11.5949 7.07241 11.4403 7.07241C11.4014 7.07241 11.3643 7.07718 11.3306 7.08579C11.3387 7.03986 11.3384 6.9872 11.3278 6.93268C11.2983 6.78088 11.2005 6.67217 11.1094 6.68988C11.0184 6.70758 10.9684 6.84499 10.998 6.99679ZM9.35052 7.21059C9.33637 7.18 9.32517 7.14567 9.318 7.10879C9.2885 6.95699 9.33841 6.81958 9.42949 6.80188C9.52057 6.78417 9.61832 6.89288 9.64783 7.04468C9.65843 7.0992 9.65878 7.15186 9.65066 7.19779C9.68434 7.18918 9.72142 7.18441 9.76034 7.18441C9.91498 7.18441 10.0403 7.25963 10.0403 7.35241C10.0403 7.4452 9.91498 7.52041 9.76034 7.52041C9.6057 7.52041 9.48034 7.4452 9.48034 7.35241C9.48034 7.4452 9.35498 7.52041 9.20034 7.52041C9.0457 7.52041 8.92034 7.4452 8.92034 7.35241C8.92034 7.25963 9.0457 7.18441 9.20034 7.18441C9.2556 7.18441 9.30712 7.19402 9.35052 7.21059ZM12.8582 7.31297C12.8453 7.40485 12.7107 7.46189 12.5576 7.44037C12.4044 7.41885 12.2908 7.32692 12.3037 7.23504C12.3166 7.14316 12.4512 7.08612 12.6043 7.10764C12.6591 7.11533 12.7087 7.13201 12.7494 7.15447C12.7396 7.1222 12.7333 7.08664 12.7314 7.04913C12.7233 6.8947 12.7918 6.76557 12.8845 6.76072C12.9771 6.75586 13.0588 6.87711 13.0669 7.03154C13.0698 7.08701 13.0628 7.13921 13.0484 7.18356C13.083 7.17972 13.1203 7.18016 13.1589 7.18558C13.312 7.2071 13.4257 7.29903 13.4128 7.39091C13.3999 7.48279 13.2653 7.53983 13.1121 7.51831C12.959 7.49678 12.8453 7.40485 12.8582 7.31297ZM13.9246 7.75723C14.0612 7.82983 14.2072 7.82227 14.2507 7.74034L14.253 7.73576C14.2665 7.74999 14.2824 7.76036 14.3006 7.76591C14.3893 7.79304 14.4979 7.69514 14.5431 7.54726C14.5883 7.39938 14.553 7.2575 14.4643 7.23038C14.3756 7.20325 14.267 7.30114 14.2218 7.44902C14.2108 7.48495 14.2046 7.52052 14.2027 7.55418C14.1722 7.51917 14.1312 7.4865 14.0824 7.46056C13.9458 7.38796 13.7998 7.39552 13.7563 7.47744C13.7127 7.55936 13.7881 7.68463 13.9246 7.75723ZM8.42916 7.79154C8.29262 7.86414 8.14662 7.85658 8.10307 7.77465C8.10226 7.77314 8.1015 7.77161 8.10077 7.77007C8.08732 7.7843 8.0714 7.79466 8.05323 7.80022C7.9645 7.82734 7.85592 7.72945 7.81071 7.58157C7.7655 7.43369 7.80078 7.29181 7.88951 7.26469C7.97824 7.23756 8.08682 7.33545 8.13203 7.48333C8.14301 7.51926 8.14925 7.55483 8.15112 7.58849C8.18165 7.55347 8.22263 7.52081 8.27142 7.49487C8.40796 7.42227 8.55396 7.42983 8.59752 7.51175C8.64108 7.59367 8.5657 7.71894 8.42916 7.79154Z" fill="#C88A02"/>
<path fill-rule="evenodd" clip-rule="evenodd" d="M11.0909 4.07654H11.3242V4.22394H11.4767V4.45727H11.3242V4.92394H11.4767V5.15727H10.936V4.92394H11.0909V4.45727H10.936V4.22394H11.0909V4.07654Z" fill="#C88A02"/>
<path d="M11.0479 5.34399H11.4959V6.79999H11.0479V5.34399Z" fill="#C88A02"/>
<path d="M9.24467 5.58785L9.24272 5.69984C8.24962 5.6825 7.67996 5.82742 7.53536 6.11627C7.38586 6.4149 7.41366 6.77792 7.62314 7.20915L7.5224 7.25809C7.29889 6.79799 7.26837 6.3994 7.43521 6.06614C7.60694 5.7231 8.20956 5.56978 9.24467 5.58785Z" fill="white"/>
<path d="M9.43662 6.58095L9.3792 6.67711C9.16293 6.54798 9.05469 6.3276 9.05469 6.0239C9.05469 5.58742 9.27953 5.33147 9.77688 5.15631C10.0943 5.04452 10.528 5.09035 11.079 5.29013L11.0408 5.39542C10.5118 5.20364 10.1025 5.16038 9.81409 5.26195C9.3579 5.42261 9.16669 5.64028 9.16669 6.0239C9.16669 6.29041 9.25659 6.47346 9.43662 6.58095Z" fill="white"/>
<path d="M7.7643 7.03733L7.55296 7.11156C7.33368 6.48721 7.3963 6.0632 7.77099 5.88029C8.10116 5.71912 8.58234 5.65353 9.21694 5.67925L9.20787 5.90306C8.60703 5.87872 8.16003 5.93965 7.86925 6.08159C7.62301 6.20179 7.57796 6.50678 7.7643 7.03733Z" fill="#C88A02"/>
<path d="M10.2334 5.4386C9.72127 5.4386 9.51096 5.56333 9.39081 5.93162C9.31424 6.16632 9.3885 6.36664 9.62929 6.55362L9.4919 6.73054C9.18016 6.48846 9.07025 6.19198 9.17786 5.86215C9.33098 5.3928 9.63144 5.2146 10.2334 5.2146C10.628 5.2146 10.9353 5.31826 11.1493 5.52922L11.1827 5.56212V6.64208H10.9587V5.65786C10.7916 5.51268 10.5515 5.4386 10.2334 5.4386Z" fill="#C88A02"/>
<path d="M13.1533 5.69979L13.1553 5.81177C14.1484 5.79444 14.7181 5.93936 14.8627 6.22821C15.0122 6.52684 14.9844 6.88986 14.7749 7.32109L14.8756 7.37003C15.0991 6.90993 15.1296 6.51134 14.9628 6.17807C14.7911 5.83503 14.1885 5.68172 13.1533 5.69979Z" fill="white"/>
<path d="M12.8025 6.60426L12.8599 6.70043C13.0762 6.57129 13.1844 6.35092 13.1844 6.04722C13.1844 5.61074 12.9596 5.35478 12.4622 5.17962C12.1448 5.06783 11.7112 5.11367 11.1602 5.31345L11.1984 5.41874C11.7273 5.22696 12.1366 5.18369 12.425 5.28526C12.8812 5.44592 13.0724 5.6636 13.0724 6.04722C13.0724 6.31373 12.9825 6.49677 12.8025 6.60426Z" fill="white"/>
<path d="M14.7031 7.14939L14.9145 7.22362C15.1338 6.59927 15.0711 6.17526 14.6964 5.99235C14.3663 5.83118 13.8851 5.76559 13.2505 5.79131L13.2596 6.01513C13.8604 5.99078 14.3074 6.05171 14.5982 6.19365C14.8444 6.31385 14.8895 6.61884 14.7031 7.14939Z" fill="#C88A02"/>
<path d="M12.2213 5.45593C12.7335 5.45593 12.9438 5.58067 13.0639 5.94895C13.1405 6.18366 13.0662 6.38397 12.8254 6.57096L12.9628 6.74788C13.2746 6.5058 13.3845 6.20931 13.2769 5.87948C13.1237 5.41013 12.8233 5.23193 12.2213 5.23193C11.8268 5.23193 11.5194 5.33559 11.3054 5.54655L11.272 5.57945V6.65942H11.496V5.67519C11.6632 5.53002 11.9032 5.45593 12.2213 5.45593Z" fill="#C88A02"/>
<path opacity="0.3" fill-rule="evenodd" clip-rule="evenodd" d="M7.57617 9.26392H14.8561V15.8047C14.8561 15.8047 14.3154 17.9999 11.2161 17.9999C8.11694 17.9999 7.57617 15.7469 7.57617 15.7469V9.26392Z" fill="#E1E5E8"/>
<mask id="mask4_171_169" style="mask-type:luminance" maskUnits="userSpaceOnUse" x="7" y="9" width="8" height="9">
<path fill-rule="evenodd" clip-rule="evenodd" d="M7.57617 9.26392H14.8561V15.8047C14.8561 15.8047 14.3154 17.9999 11.2161 17.9999C8.11694 17.9999 7.57617 15.7469 7.57617 15.7469V9.26392Z" fill="white"/>
</mask>
<g mask="url(#mask4_171_169)">
<path d="M7.57617 13.2959H11.2722V17.6639H7.57617V13.2959Z" fill="#FFC034"/>
<path d="M8.02441 13.5199H8.47241V17.6639H8.02441V13.5199Z" fill="#AD1619"/>
<path d="M9.59229 13.5199H10.0403V17.6639H9.59229V13.5199Z" fill="#AD1619"/>
<path d="M8.80811 13.5199H9.25611V17.6639H8.80811V13.5199Z" fill="#AD1619"/>
<path d="M10.3765 13.5199H10.8245V17.6639H10.3765V13.5199Z" fill="#AD1619"/>
<path d="M7.57617 9.15186H11.2722V13.4079H7.57617V9.15186Z" fill="#AD1619"/>
<path d="M11.1602 13.184H14.8562V17.44H11.1602V13.184Z" fill="#AD1619"/>
<path d="M11.1602 9.26392H15.0802V13.4079H11.1602V9.26392Z" fill="#F1F9FF"/>
<path fill-rule="evenodd" clip-rule="evenodd" d="M9.14435 9.59998H9.48035V10.5292H9.70435V10.0646H10.0404V10.5292H10.3764V11.1099H10.0404V12.1552H10.3764V12.736H8.36035V12.1552H8.69635V11.1099H8.36035V10.5292H8.58435V10.0646H8.92035V10.5292H9.14435V9.59998Z" fill="#C88A02"/>
<path d="M13.083 9.79497L13.3123 9.54944L13.7939 9.99926L13.5645 10.2448L13.083 9.79497Z" fill="#C88A02"/>
<path fill-rule="evenodd" clip-rule="evenodd" d="M14.4641 16.1399V13.6879H11.6641V16.1194L11.6685 16.1383C11.8102 16.7423 12.2929 17.0479 13.0641 17.0479C13.8344 17.0479 14.3171 16.7502 14.4594 16.1593L14.4641 16.1399ZM13.0641 16.7119C12.4454 16.7119 12.1075 16.5035 12.0001 16.0798V14.0239H14.1281V16.0993C14.0209 16.5091 13.683 16.7119 13.0641 16.7119Z" fill="#FFC034"/>
<path fill-rule="evenodd" clip-rule="evenodd" d="M13.1798 13.8928H12.9465V15.0045L12.0267 14.0041L11.8618 14.1557L12.6936 15.0604H11.9399V15.3964H12.5189H12.7119L11.8618 16.3211L12.0267 16.4727L12.9465 15.4723V16.7717H13.1798V15.5892L13.9921 16.4727L14.157 16.3211L13.3068 15.3964H14.2558V15.0604H13.3252L14.157 14.1557L13.9921 14.0041L13.1798 14.8876V13.8928Z" fill="#FFC034"/>
<path fill-rule="evenodd" clip-rule="evenodd" d="M13.5872 17.4426C13.5872 17.4426 11.215 17.6291 11.215 16.0991C11.215 16.0991 11.1924 17.4426 8.71533 17.4426V18.6504H13.5872V17.4426Z" fill="#F1F9FF"/>
<path fill-rule="evenodd" clip-rule="evenodd" d="M11.2165 14.1919C11.6804 14.1919 12.0565 13.7907 12.0565 13.2959C12.0565 12.8011 11.6804 12.3999 11.2165 12.3999C10.7526 12.3999 10.3765 12.8011 10.3765 13.2959C10.3765 13.7907 10.7526 14.1919 11.2165 14.1919Z" fill="#005BBF" stroke="#AD1619" stroke-width="1.93376"/>
</g>
</g>
</g>
</svg>
