<svg width="32" height="24" viewBox="0 0 32 24" fill="none" xmlns="http://www.w3.org/2000/svg">
<mask id="mask0_171_519" style="mask-type:luminance" maskUnits="userSpaceOnUse" x="0" y="0" width="32" height="24">
<path d="M0 0H32V24H0V0Z" fill="white"/>
</mask>
<g mask="url(#mask0_171_519)">
<path fill-rule="evenodd" clip-rule="evenodd" d="M0 0H32V24H0V0Z" fill="#F7FCFF"/>
<path fill-rule="evenodd" clip-rule="evenodd" d="M0 14.6667V16.6667H32V14.6667H0Z" fill="#E31D1C"/>
<path fill-rule="evenodd" clip-rule="evenodd" d="M0 18.3333V20.3333H32V18.3333H0Z" fill="#E31D1C"/>
<path fill-rule="evenodd" clip-rule="evenodd" d="M0 7.33325V9.33325H32V7.33325H0Z" fill="#E31D1C"/>
<path fill-rule="evenodd" clip-rule="evenodd" d="M0 22V24H32V22H0Z" fill="#E31D1C"/>
<path fill-rule="evenodd" clip-rule="evenodd" d="M0 11V13H32V11H0Z" fill="#E31D1C"/>
<path fill-rule="evenodd" clip-rule="evenodd" d="M0 0V2H32V0H0Z" fill="#E31D1C"/>
<path fill-rule="evenodd" clip-rule="evenodd" d="M0 3.66675V5.66675H32V3.66675H0Z" fill="#E31D1C"/>
<path d="M0 0H20V13H0V0Z" fill="#2E42A5"/>
<path fill-rule="evenodd" clip-rule="evenodd" d="M1.72221 2.93871L0.996331 3.44759L1.24139 2.54198L0.59668 1.96807H1.43876L1.72119 1.229L2.05236 1.96807H2.77022L2.20618 2.54198L2.42454 3.44759L1.72221 2.93871ZM5.72221 2.93871L4.99633 3.44759L5.24139 2.54198L4.59668 1.96807H5.43876L5.72119 1.229L6.05236 1.96807H6.77022L6.20618 2.54198L6.42454 3.44759L5.72221 2.93871ZM8.99633 3.44759L9.72221 2.93871L10.4245 3.44759L10.2061 2.54198L10.7702 1.96807H10.0523L9.72119 1.229L9.43876 1.96807H8.59668L9.24139 2.54198L8.99633 3.44759ZM13.7222 2.93871L12.9963 3.44759L13.2414 2.54198L12.5966 1.96807H13.4387L13.7212 1.229L14.0523 1.96807H14.7702L14.2061 2.54198L14.4245 3.44759L13.7222 2.93871ZM0.996331 7.44759L1.72221 6.93871L2.42454 7.44759L2.20618 6.54198L2.77022 5.96807H2.05236L1.72119 5.229L1.43876 5.96807H0.59668L1.24139 6.54198L0.996331 7.44759ZM5.72221 6.93871L4.99633 7.44759L5.24139 6.54198L4.59668 5.96807H5.43876L5.72119 5.229L6.05236 5.96807H6.77022L6.20618 6.54198L6.42454 7.44759L5.72221 6.93871ZM8.99633 7.44759L9.72221 6.93871L10.4245 7.44759L10.2061 6.54198L10.7702 5.96807H10.0523L9.72119 5.229L9.43876 5.96807H8.59668L9.24139 6.54198L8.99633 7.44759ZM13.7222 6.93871L12.9963 7.44759L13.2414 6.54198L12.5966 5.96807H13.4387L13.7212 5.229L14.0523 5.96807H14.7702L14.2061 6.54198L14.4245 7.44759L13.7222 6.93871ZM0.996331 11.4476L1.72221 10.9387L2.42454 11.4476L2.20618 10.542L2.77022 9.96807H2.05236L1.72119 9.229L1.43876 9.96807H0.59668L1.24139 10.542L0.996331 11.4476ZM5.72221 10.9387L4.99633 11.4476L5.24139 10.542L4.59668 9.96807H5.43876L5.72119 9.229L6.05236 9.96807H6.77022L6.20618 10.542L6.42454 11.4476L5.72221 10.9387ZM8.99633 11.4476L9.72221 10.9387L10.4245 11.4476L10.2061 10.542L10.7702 9.96807H10.0523L9.72119 9.229L9.43876 9.96807H8.59668L9.24139 10.542L8.99633 11.4476ZM13.7222 10.9387L12.9963 11.4476L13.2414 10.542L12.5966 9.96807H13.4387L13.7212 9.229L14.0523 9.96807H14.7702L14.2061 10.542L14.4245 11.4476L13.7222 10.9387ZM16.9963 3.44759L17.7222 2.93871L18.4245 3.44759L18.2061 2.54198L18.7702 1.96807H18.0523L17.7212 1.229L17.4387 1.96807H16.5966L17.2414 2.54198L16.9963 3.44759ZM17.7222 6.93871L16.9963 7.44759L17.2414 6.54198L16.5966 5.96807H17.4387L17.7212 5.229L18.0523 5.96807H18.7702L18.2061 6.54198L18.4245 7.44759L17.7222 6.93871ZM16.9963 11.4476L17.7222 10.9387L18.4245 11.4476L18.2061 10.542L18.7702 9.96807H18.0523L17.7212 9.229L17.4387 9.96807H16.5966L17.2414 10.542L16.9963 11.4476ZM3.72221 4.93871L2.99633 5.44759L3.24139 4.54198L2.59668 3.96807H3.43876L3.72119 3.229L4.05236 3.96807H4.77022L4.20618 4.54198L4.42454 5.44759L3.72221 4.93871ZM6.99633 5.44759L7.72221 4.93871L8.42454 5.44759L8.20618 4.54198L8.77022 3.96807H8.05236L7.72119 3.229L7.43876 3.96807H6.59668L7.24139 4.54198L6.99633 5.44759ZM11.7222 4.93871L10.9963 5.44759L11.2414 4.54198L10.5966 3.96807H11.4387L11.7212 3.229L12.0523 3.96807H12.7702L12.2061 4.54198L12.4245 5.44759L11.7222 4.93871ZM2.99633 9.44759L3.72221 8.93871L4.42454 9.44759L4.20618 8.54198L4.77022 7.96807H4.05236L3.72119 7.229L3.43876 7.96807H2.59668L3.24139 8.54198L2.99633 9.44759ZM7.72221 8.93871L6.99633 9.44759L7.24139 8.54198L6.59668 7.96807H7.43876L7.72119 7.229L8.05236 7.96807H8.77022L8.20618 8.54198L8.42454 9.44759L7.72221 8.93871ZM10.9963 9.44759L11.7222 8.93871L12.4245 9.44759L12.2061 8.54198L12.7702 7.96807H12.0523L11.7212 7.229L11.4387 7.96807H10.5966L11.2414 8.54198L10.9963 9.44759ZM15.7222 4.93871L14.9963 5.44759L15.2414 4.54198L14.5966 3.96807H15.4387L15.7212 3.229L16.0523 3.96807H16.7702L16.2061 4.54198L16.4245 5.44759L15.7222 4.93871ZM14.9963 9.44759L15.7222 8.93871L16.4245 9.44759L16.2061 8.54198L16.7702 7.96807H16.0523L15.7212 7.229L15.4387 7.96807H14.5966L15.2414 8.54198L14.9963 9.44759Z" fill="#F7FCFF"/>
</g>
</svg>
