<svg width="30" height="31" viewBox="0 0 30 31" fill="none" xmlns="http://www.w3.org/2000/svg">
<path d="M20 0.5C25.5228 0.5 30 4.97715 30 10.5V20.7425C30 26.1314 25.6314 30.5 20.2425 30.5C19.4392 30.5 19.1872 30.0491 19.1872 29.6379C19.1872 29.134 19.2061 27.4761 19.2061 25.4204C19.2449 24.8989 19.1716 24.3752 18.9912 23.8844C18.7727 23.29 19.0842 22.4629 19.7028 22.3277C22.5851 21.698 25.1819 20.0067 25.1819 14.9865C25.1929 14.2662 25.0727 13.5568 24.8337 12.8908C24.3375 11.5076 24.0298 9.97367 23.8938 8.51047C23.7891 7.38374 22.7736 6.66462 21.7085 7.04656C21.5649 7.09805 21.412 7.15827 21.2495 7.22858C19.8937 7.8153 18.4074 8.09544 16.9387 7.93669C15.8982 7.82423 14.8486 7.82429 13.8081 7.93686C12.3404 8.09566 10.8551 7.81577 9.50033 7.2292C9.33804 7.15893 9.18526 7.09873 9.04181 7.04724C7.9757 6.66461 6.95951 7.38485 6.85574 8.51279C6.72123 9.97484 6.4144 11.5072 5.91738 12.8887C5.67756 13.5553 5.55649 14.2653 5.5665 14.9865C5.5665 19.8232 7.98426 21.5782 10.7388 22.2667C11.4609 22.4472 11.8384 23.4566 11.6666 24.1808C11.5997 24.463 11.4435 24.7327 11.1732 24.838C10.9155 24.9384 10.6454 25.006 10.3695 25.0386C9.93977 25.0893 9.50426 25.0543 9.08818 24.9355C8.6721 24.8168 8.28373 24.6166 7.94558 24.3466C7.60743 24.0767 7.32621 23.7423 7.11823 23.3628C6.87205 22.937 6.53196 22.573 6.12384 22.2985C5.88943 22.1409 5.63614 22.0152 5.37066 21.9239C4.97667 21.7885 4.50068 21.6692 4.15827 21.9065C3.98455 22.0269 3.99306 22.2608 4.65707 22.7149C5.47587 23.2367 6.08076 24.0345 6.36225 24.9638C6.36226 24.9638 6.36225 24.9638 6.36226 24.9638C6.36236 24.9641 6.87496 26.6558 8.94915 27.0988C10.2668 27.3802 11.5631 28.2925 11.5631 29.6398C11.5631 30.0453 11.2846 30.5 10.5153 30.5H10C4.47715 30.5 0 26.0228 0 20.5V10.5C0 4.97715 4.47715 0.5 10 0.5H20Z" fill="#EDEDEE"/>
</svg>
