<svg width="27" height="27" viewBox="0 0 27 27" fill="none" xmlns="http://www.w3.org/2000/svg">
<path d="M18.75 0.75C22.8921 0.75 26.25 4.10786 26.25 8.25V19.5C26.25 23.6421 22.8921 27 18.75 27H17.7122C17.0093 27 16.7888 26.6054 16.7888 26.2457C16.7888 25.8047 16.8054 24.3541 16.8054 22.5554C16.8392 22.0991 16.7751 21.6408 16.6173 21.2113C16.4261 20.6912 16.6986 19.9675 17.24 19.8492C19.762 19.2982 22.0342 17.8183 22.0342 13.4257C22.0438 12.7954 21.9386 12.1747 21.7295 11.592C21.2953 10.3817 21.0261 9.03946 20.9071 7.75916C20.8155 6.77328 19.9269 6.14404 18.9949 6.47824C18.8693 6.52329 18.7355 6.57599 18.5933 6.63751C17.407 7.15089 16.1065 7.39601 14.8214 7.25711C13.911 7.1587 12.9925 7.15875 12.0821 7.25725C10.7979 7.3962 9.49821 7.15129 8.31279 6.63805C8.17079 6.57656 8.0371 6.52389 7.91158 6.47884C6.97873 6.14403 6.08957 6.77425 5.99877 7.76119C5.88108 9.04049 5.6126 10.3813 5.17771 11.5901C4.96787 12.1734 4.86193 12.7947 4.87069 13.4257C4.87069 17.6578 6.98623 19.1935 9.39647 19.7959C10.0283 19.9538 10.3586 20.837 10.2083 21.4707C10.1497 21.7177 10.0131 21.9536 9.77656 22.0457C9.55103 22.1336 9.31475 22.1927 9.0733 22.2213C8.6973 22.2657 8.31623 22.235 7.95216 22.1311C7.58809 22.0272 7.24827 21.852 6.95238 21.6158C6.6565 21.3796 6.41043 21.087 6.22845 20.755C6.01305 20.3824 5.71547 20.0639 5.35836 19.8237C5.13149 19.6711 4.8844 19.5527 4.62504 19.4715C4.32686 19.3782 3.99426 19.3202 3.70716 19.4435C3.49478 19.5347 3.4161 19.7375 4.07493 20.188C4.79138 20.6446 5.32067 21.3427 5.56697 22.1558C5.56697 22.1558 5.56697 22.1558 5.56698 22.1558C5.56706 22.1561 6.01559 23.6363 7.83051 24.024C8.98344 24.2702 10.1177 25.0684 10.1177 26.2473C10.1177 26.6021 9.87401 27 9.20093 27H7.5C3.35786 27 0 23.6421 0 19.5V8.25C0 4.10786 3.35786 0.75 7.5 0.75H18.75Z" fill="#EDEDEE"/>
</svg>
