<svg width="35" height="34" viewBox="0 0 35 34" fill="none" xmlns="http://www.w3.org/2000/svg">
<path d="M15.3562 14.7593C15.2104 14.3206 15.0792 13.8961 14.9333 13.4574C14.7875 13.0188 14.6563 12.6084 14.5396 12.198C14.4229 11.8018 14.3208 11.4339 14.2188 11.0942H14.1896C14.0583 11.7027 13.8979 12.3112 13.6938 12.9197C13.475 13.5989 13.2563 14.3065 13.0229 15.014C12.8188 15.7357 12.6 16.4008 12.3813 16.9951H16.0854C15.9979 16.6966 15.8813 16.3442 15.75 15.9749C15.6188 15.5942 15.4875 15.1838 15.3562 14.7593ZM28.8021 0H6.19792C2.77083 0 0 2.68866 0 6.0141V27.0988C0 30.4243 2.77083 33.1129 6.19792 33.1129H28.8021C32.2292 33.1129 35 30.4243 35 27.0988V6.0141C35 2.68866 32.2292 0 28.8021 0ZM21.4375 23.3913H18.3881C18.2875 23.4055 18.1854 23.3347 18.1562 23.2356L16.9604 19.8678H11.5354L10.4271 23.1932C10.3979 23.3206 10.2813 23.4055 10.15 23.3927H7.40833C7.24792 23.3927 7.20417 23.3064 7.24792 23.138L11.9437 10.0188C11.9875 9.87727 12.0313 9.72161 12.0896 9.5518C12.1479 9.25464 12.1771 8.94332 12.1771 8.632C12.1625 8.56124 12.2208 8.49049 12.2938 8.47634H16.0708C16.1875 8.47634 16.2458 8.51879 16.2604 8.58955L21.5833 23.1649C21.6271 23.3191 21.5833 23.3913 21.4375 23.3913ZM26.3958 23.179C26.3958 23.3347 26.339 23.4055 26.2077 23.4055H23.3479C23.2021 23.4055 23.1292 23.3191 23.1292 23.179V12.2829C23.1292 12.1414 23.189 12.0848 23.3202 12.0848H26.2077C26.339 12.0848 26.3958 12.1556 26.3958 12.2829V23.179ZM26.091 10.4009C25.7542 10.7405 25.2583 10.9244 24.7625 10.8961C24.2813 10.9103 23.8146 10.7263 23.4631 10.4009C23.1277 10.0471 22.9527 9.5801 22.9673 9.09898C22.9527 8.61785 23.1423 8.16502 23.4908 7.83955C23.8437 7.51408 24.3104 7.34427 24.7917 7.34427C25.3619 7.34427 25.7965 7.51408 26.1187 7.83955C26.4396 8.17917 26.6146 8.632 26.6 9.09898C26.6146 9.5801 26.4396 10.0471 26.091 10.4009Z" fill="#FF9A00"/>
</svg>
