<svg width="15" height="15" viewBox="0 0 15 15" fill="none" xmlns="http://www.w3.org/2000/svg">
<path d="M10.6249 1.24989C11.453 1.25236 12.2465 1.58242 12.832 2.16798C13.4176 2.75353 13.7476 3.54701 13.7501 4.37511V10.6249C13.7476 11.453 13.4176 12.2465 12.832 12.832C12.2465 13.4176 11.453 13.7476 10.6249 13.7501H4.37511C3.54701 13.7476 2.75353 13.4176 2.16798 12.832C1.58242 12.2465 1.25236 11.453 1.24989 10.6249V4.37511C1.25236 3.54701 1.58242 2.75353 2.16798 2.16798C2.75353 1.58242 3.54701 1.25236 4.37511 1.24989H10.6249ZM10.6249 0H4.37511C1.96875 0 0 1.96875 0 4.37511V10.6249C0 13.0312 1.96875 15 4.37511 15H10.6249C13.0312 15 15 13.0312 15 10.6249V4.37511C15 1.96875 13.0312 0 10.6249 0Z" fill="#EDEDEE"/>
<path d="M11.5624 4.375C11.377 4.375 11.1957 4.32002 11.0415 4.217C10.8874 4.11399 10.7672 3.96757 10.6963 3.79627C10.6253 3.62496 10.6067 3.43646 10.6429 3.2546C10.6791 3.07275 10.7684 2.9057 10.8995 2.77459C11.0306 2.64348 11.1976 2.55419 11.3795 2.51801C11.5613 2.48184 11.7498 2.50041 11.9212 2.57136C12.0925 2.64232 12.2389 2.76248 12.3419 2.91665C12.4449 3.07082 12.4999 3.25208 12.4999 3.4375C12.5002 3.56069 12.4761 3.68272 12.4291 3.79658C12.382 3.91044 12.313 4.0139 12.2259 4.101C12.1388 4.18811 12.0353 4.25716 11.9215 4.30418C11.8076 4.3512 11.6856 4.37527 11.5624 4.375ZM7.5 4.99978C7.99448 4.99978 8.47785 5.14641 8.88899 5.42112C9.30013 5.69584 9.62058 6.0863 9.8098 6.54314C9.99903 6.99997 10.0485 7.50266 9.95207 7.98764C9.85561 8.47261 9.61749 8.91809 9.26785 9.26773C8.9182 9.61738 8.47272 9.85549 7.98775 9.95196C7.50277 10.0484 7.00009 9.99892 6.54325 9.80969C6.08641 9.62046 5.69595 9.30002 5.42123 8.88888C5.14652 8.47774 4.99989 7.99436 4.99989 7.49989C5.0006 6.83704 5.26423 6.20153 5.73294 5.73283C6.20165 5.26412 6.83715 5.00049 7.5 4.99978ZM7.5 3.74989C6.75832 3.74989 6.0333 3.96982 5.41661 4.38188C4.79993 4.79393 4.31928 5.3796 4.03545 6.06483C3.75162 6.75005 3.67736 7.50405 3.82206 8.23148C3.96675 8.95891 4.3239 9.62709 4.84835 10.1515C5.3728 10.676 6.04098 11.0331 6.76841 11.1778C7.49584 11.3225 8.24984 11.2483 8.93506 10.9644C9.62029 10.6806 10.206 10.2 10.618 9.58328C11.0301 8.96659 11.25 8.24157 11.25 7.49989C11.25 6.50533 10.8549 5.5515 10.1517 4.84824C9.44839 4.14498 8.49456 3.74989 7.5 3.74989Z" fill="#EDEDEE"/>
</svg>
