<svg width="16" height="15" viewBox="0 0 16 15" fill="none" xmlns="http://www.w3.org/2000/svg">
<path d="M14.3003 0H1.7817C1.09766 0 0.5 0.492187 0.5 1.16819V13.7146C0.5 14.3943 1.09766 15 1.7817 15H14.2967C14.9844 15 15.5 14.3903 15.5 13.7146V1.16819C15.504 0.492187 14.9844 0 14.3003 0ZM5.14967 12.5032H3.00078V5.82188H5.14967V12.5032ZM4.14955 4.80603H4.13415C3.44643 4.80603 3.00112 4.29408 3.00112 3.65324C3.00112 3.00067 3.45815 2.50078 4.16127 2.50078C4.8644 2.50078 5.29464 2.99699 5.31005 3.65324C5.30971 4.29408 4.8644 4.80603 4.14955 4.80603ZM13.0032 12.5032H10.8544V8.85C10.8544 7.97478 10.5416 7.37679 9.76417 7.37679C9.1702 7.37679 8.81864 7.77857 8.66228 8.16998C8.60368 8.3106 8.58795 8.50212 8.58795 8.69766V12.5032H6.43906V5.82188H8.58795V6.75167C8.90067 6.30636 9.38917 5.66551 10.5259 5.66551C11.9365 5.66551 13.0036 6.59531 13.0036 8.59989L13.0032 12.5032Z" fill="#EDEDEE"/>
</svg>
