<svg width="99" height="20" viewBox="0 0 99 20" fill="none" xmlns="http://www.w3.org/2000/svg">
<path d="M20.1303 14.3524V17.917C20.1303 19.0304 19.2294 19.9314 18.116 19.9314C17.0025 19.9314 16.1016 19.0304 16.1016 17.917L16.0373 15.4265C16.1317 14.5649 15.1757 14.6436 15.1757 14.6436L5.41453 14.6593C4.30504 14.5177 4.23423 15.3439 4.23423 15.3439V17.917C4.23423 19.0304 3.33195 19.9314 2.21983 19.9314C1.10772 19.9314 0.205442 19.0304 0.205442 17.917C0.0480674 14.6593 0.362816 13.959 0.362816 13.959L0.929364 12.6843C0.173967 11.3623 0.205442 10.2292 0.205442 10.2292V2.03002C0.205442 0.917905 1.10772 0.015625 2.21983 0.015625C3.33195 0.015625 4.23423 0.917905 4.23423 2.03002V9.67841C4.23423 10.6699 4.94241 10.5518 4.94241 10.5518H6.0519L11.6479 2.39854L11.6885 2.33952C12.0544 1.82674 12.6538 1.49232 13.3305 1.49232C14.4439 1.49232 15.3449 2.39329 15.3449 3.50671C15.3449 3.90146 15.2308 4.26998 15.034 4.58079L14.9344 4.72505L10.9292 10.5295L16.1016 10.6227C19.6372 11.142 20.1303 14.3524 20.1303 14.3524Z" fill="#EDEDEE"/>
<path d="M18.116 9.353C19.2285 9.353 20.1303 8.45113 20.1303 7.33861C20.1303 6.22609 19.2285 5.32422 18.116 5.32422C17.0034 5.32422 16.1016 6.22609 16.1016 7.33861C16.1016 8.45113 17.0034 9.353 18.116 9.353Z" fill="#EDEDEE"/>
<path d="M40.4617 19.9311C41.5742 19.9311 42.476 19.0293 42.476 17.9167C42.476 16.8042 41.5742 15.9023 40.4617 15.9023C39.3491 15.9023 38.4473 16.8042 38.4473 17.9167C38.4473 19.0293 39.3491 19.9311 40.4617 19.9311Z" fill="#EDEDEE"/>
<path d="M52.1875 14.6173C53.3 14.6173 54.2019 13.7154 54.2019 12.6029C54.2019 11.4904 53.3 10.5885 52.1875 10.5885C51.075 10.5885 50.1731 11.4904 50.1731 12.6029C50.1731 13.7154 51.075 14.6173 52.1875 14.6173Z" fill="#EDEDEE"/>
<path d="M80.8782 19.8712C81.9907 19.8712 82.8926 18.9693 82.8926 17.8568C82.8926 16.7443 81.9907 15.8424 80.8782 15.8424C79.7656 15.8424 78.8638 16.7443 78.8638 17.8568C78.8638 18.9693 79.7656 19.8712 80.8782 19.8712Z" fill="#EDEDEE"/>
<path d="M76.4729 17.8567C76.4729 18.9689 75.572 19.8711 74.4585 19.8711C73.3451 19.8711 72.4442 18.9689 72.4442 17.8567C72.4442 17.8567 72.515 10.6346 72.4087 9.99065C72.3025 9.34542 71.7242 9.37164 71.7242 9.37164L69.2219 9.31394C68.1085 9.31394 67.2075 8.41166 67.2075 7.29955C67.2075 6.18744 68.1085 5.28516 69.2219 5.28516L72.4442 5.33499C72.4442 5.33499 74.5451 5.4281 75.6664 7.29955C75.6664 7.29955 76.3746 8.32379 76.4572 9.31394C76.5398 10.3041 76.4729 17.8567 76.4729 17.8567Z" fill="#EDEDEE"/>
<path d="M98.8385 7.29958V15.4149C98.8385 15.4149 98.8241 17.445 97.1716 18.9086C97.1716 18.9086 96.1566 19.7348 94.3625 19.9944C94.3625 19.9944 91.3645 20.2541 89.8301 17.2325C89.8301 17.2325 89.4918 16.4535 89.4682 15.8398C89.4446 15.226 89.4682 9.95134 89.4682 9.95134C89.4682 9.95134 89.3501 9.4661 88.8702 9.36381C88.3902 9.26152 83.606 9.37955 83.606 9.37955C83.606 9.37955 83.0709 9.34807 82.9686 9.85167C82.8663 10.3553 82.8926 12.6031 82.8926 12.6031C82.8926 13.7152 81.9903 14.6175 80.8782 14.6175C79.766 14.6175 78.8638 13.7152 78.8638 12.6031L78.8664 12.4995L78.9477 9.31397C78.9477 9.31397 78.8887 8.39071 79.5969 7.29958C79.5969 7.29958 81.0591 5.29962 82.8899 5.31142C84.7194 5.32322 89.0865 5.28519 89.0865 5.28519C89.0865 5.28519 91.3173 5.25109 92.6629 7.29958C92.6629 7.29958 93.3238 8.16252 93.3947 8.94414C93.4655 9.72577 93.5363 15.0608 93.5363 15.0608C93.5363 15.0608 93.497 15.8004 94.1029 15.8083C94.7087 15.8162 94.7087 15.2103 94.7087 15.2103L94.8097 7.29958C94.8097 6.18747 95.712 5.28519 96.8241 5.28519C97.9362 5.28519 98.8385 6.18747 98.8385 7.29958Z" fill="#EDEDEE"/>
<path d="M74.4587 4.02878C75.5713 4.02878 76.4731 3.12691 76.4731 2.01439C76.4731 0.901874 75.5713 0 74.4587 0C73.3462 0 72.4443 0.901874 72.4443 2.01439C72.4443 3.12691 73.3462 4.02878 74.4587 4.02878Z" fill="#EDEDEE"/>
<path d="M64.7564 7.29955V10.729C64.5886 11.6614 64.0876 12.4404 64.0876 12.4404C63.3322 13.7742 61.9749 14.2699 61.9749 14.2699C61.3493 14.6594 60.1926 14.6293 60.1926 14.6293C59.5316 14.7119 59.567 15.2732 59.567 15.2732C59.4018 16.2646 59.2129 16.902 59.2129 16.902C58.4103 19.4279 55.5068 19.9275 55.5068 19.9275L48.8026 19.9315C47.3863 19.7269 46.5836 18.9794 46.5836 18.9794C45.002 17.8226 44.8774 16.1702 44.8774 16.1702V7.29955C44.8774 6.18744 45.7784 5.28516 46.8918 5.28516C48.0053 5.28516 48.9062 6.18744 48.9062 7.29955V15.0371C48.9062 15.0371 48.8813 15.7387 49.5003 15.8161C49.5003 15.8161 50.0354 15.9158 50.8682 15.8751L54.4799 15.8581C54.4799 15.8581 55.3533 15.9224 55.4123 15.226C55.4123 15.226 55.3179 13.8804 56.1087 12.8063C56.1087 12.8063 56.9349 11.4136 58.1979 10.9533C58.1979 10.9533 58.8116 10.67 59.4897 10.6228C59.4897 10.6228 60.7355 10.6556 60.6647 9.95131L60.7277 7.29955C60.7277 6.18744 61.6299 5.28516 62.7421 5.28516C63.8542 5.28516 64.7564 6.18744 64.7564 7.29955Z" fill="#EDEDEE"/>
<path d="M41.0283 6.5783C41.0283 6.5783 40.0054 5.46094 38.5733 5.35078L26.786 5.27209C26.786 5.27209 22.7572 5.71274 22.4896 9.67858C22.4896 9.67858 22.2378 10.9848 23.2136 12.5428C23.2136 12.5428 23.2922 12.7946 22.9145 13.251C22.9145 13.251 21.7185 16.0837 23.3867 17.9879C23.3867 17.9879 24.5827 19.5617 26.0148 19.8292L35.0638 19.9276C36.1773 19.9276 37.0782 19.0253 37.0782 17.9132C37.0782 16.8011 36.1773 15.8988 35.0638 15.8988H27.321C27.321 15.8988 26.6758 15.8949 26.6286 15.2339C26.6286 15.2339 26.6758 14.7775 27.2738 14.6359H38.29C38.29 14.6359 40.871 14.6201 42.1142 11.7087C42.1142 11.7087 43.4676 9.28514 41.0283 6.5783ZM37.7785 10.5756H27.203C25.9283 10.0091 27.203 9.31399 27.203 9.31399H37.7785C39.1477 10.0707 37.7785 10.5756 37.7785 10.5756Z" fill="#EDEDEE"/>
</svg>
