<svg width="18" height="14" viewBox="0 0 18 14" fill="none" xmlns="http://www.w3.org/2000/svg">
<path d="M15.5167 0H2.21667C1.62896 0.000631681 1.06551 0.235493 0.649941 0.653051C0.234372 1.07061 0.000628673 1.63676 0 2.22727V11.7727C0.000628673 12.3632 0.234372 12.9294 0.649941 13.3469C1.06551 13.7645 1.62896 13.9994 2.21667 14H15.5167C16.1044 13.9994 16.6678 13.7645 17.0834 13.3469C17.499 12.9294 17.7327 12.3632 17.7333 11.7727V2.22727C17.7327 1.63676 17.499 1.07061 17.0834 0.653051C16.6678 0.235493 16.1044 0.000631681 15.5167 0ZM14.9554 3.68415L9.25537 8.13869C9.14423 8.22551 9.00745 8.27265 8.86667 8.27265C8.72588 8.27265 8.58911 8.22551 8.47796 8.13869L2.77796 3.68415C2.71099 3.63333 2.65474 3.56965 2.61247 3.4968C2.57021 3.42395 2.54278 3.34339 2.53177 3.2598C2.52076 3.1762 2.5264 3.09125 2.54835 3.00986C2.5703 2.92847 2.60813 2.85228 2.65964 2.78571C2.71115 2.71915 2.77532 2.66353 2.84841 2.62209C2.9215 2.58066 3.00205 2.55423 3.0854 2.54434C3.16874 2.53446 3.2532 2.54132 3.33389 2.56452C3.41457 2.58772 3.48986 2.6268 3.55537 2.67949L8.86667 6.83017L14.178 2.67949C14.3108 2.57871 14.4777 2.53451 14.6427 2.55645C14.8077 2.57839 14.9575 2.66469 15.0596 2.79671C15.1618 2.92872 15.2081 3.09583 15.1886 3.2619C15.1691 3.42798 15.0853 3.57966 14.9554 3.68415Z" fill="#EDEDEE"/>
</svg>
