<svg width="14" height="14" viewBox="0 0 14 14" fill="none" xmlns="http://www.w3.org/2000/svg">
<path d="M13.9672 10.5669C13.8041 10.3931 13.2281 9.87936 12.1694 9.19966C11.1028 8.51402 10.3162 8.08651 10.0906 7.98682C10.0707 7.978 10.0488 7.97477 10.0272 7.97747C10.0056 7.98017 9.98515 7.98869 9.96805 8.00214C9.60461 8.28558 8.99271 8.80622 8.9599 8.83434C8.74802 9.01591 8.74802 9.01591 8.57458 8.95934C8.26957 8.85934 7.32205 8.35621 6.4964 7.52869C5.67075 6.70118 5.14168 5.73022 5.04167 5.42553C4.98448 5.25177 4.98448 5.25177 5.16668 5.03989C5.1948 5.00708 5.71575 4.39519 5.9992 4.03206C6.01264 4.01496 6.02117 3.99452 6.02387 3.97294C6.02657 3.95135 6.02333 3.92944 6.01451 3.90956C5.91482 3.68362 5.48731 2.89735 4.80167 1.83077C4.12102 0.772313 3.60788 0.196365 3.43413 0.0332364C3.41819 0.0181902 3.39848 0.00772319 3.37708 0.00293833C3.35569 -0.00184654 3.3334 -0.000772056 3.31256 0.00604844C2.7052 0.214766 2.11918 0.481088 1.56252 0.801376C1.02514 1.11376 0.516377 1.47298 0.0421651 1.87483C0.0256115 1.88891 0.0132008 1.90722 0.00626401 1.92781C-0.000672784 1.9484 -0.00187401 1.97049 0.00278909 1.99171C0.0681033 2.29609 0.380299 3.56674 1.34907 5.32677C2.33754 7.12306 3.02256 8.04339 4.47416 9.48998C5.92576 10.9366 6.87516 11.6628 8.67333 12.6513C10.4334 13.6201 11.7047 13.9326 12.0084 13.9973C12.0297 14.0019 12.0518 14.0006 12.0724 13.9937C12.0931 13.9868 12.1114 13.9744 12.1256 13.9579C12.5274 13.4837 12.8865 12.9749 13.1988 12.4375C13.519 11.8808 13.7853 11.2948 13.9941 10.6875C14.0008 10.6668 14.0018 10.6447 13.9971 10.6235C13.9924 10.6023 13.982 10.5828 13.9672 10.5669Z" fill="#EDEDEE"/>
</svg>
