<svg width="21" height="14" viewBox="0 0 21 14" fill="none" xmlns="http://www.w3.org/2000/svg">
<path d="M10.5006 9.60009C11.9366 9.60009 13.1006 8.43603 13.1006 7.00009C13.1006 5.56414 11.9366 4.40009 10.5006 4.40009C9.06469 4.40009 7.90063 5.56414 7.90063 7.00009C7.90063 8.43603 9.06469 9.60009 10.5006 9.60009Z" fill="#090909"/>
<path d="M20.0411 6.29313C18.9662 4.63075 17.5715 3.21863 16.0083 2.20909C14.2789 1.09109 12.3695 0.5 10.4869 0.5C8.75956 0.5 7.06103 0.993594 5.43847 1.96697C3.78381 2.95944 2.28475 4.40934 0.982718 6.27606C0.835731 6.48703 0.754779 6.73693 0.750149 6.99401C0.74552 7.2511 0.817422 7.50375 0.956718 7.71987C2.02962 9.39891 3.41047 10.8131 4.94934 11.8088C6.682 12.9312 8.54669 13.5 10.4869 13.5C12.3845 13.5 14.298 12.9138 16.0201 11.8051C17.5825 10.7988 18.9743 9.38144 20.0452 7.70525C20.1797 7.49415 20.2508 7.2489 20.2501 6.99859C20.2494 6.74829 20.1768 6.50345 20.0411 6.29313ZM10.5007 10.9C9.7294 10.9 8.97538 10.6713 8.33403 10.2427C7.69267 9.81419 7.1928 9.2051 6.89762 8.49247C6.60244 7.77983 6.5252 6.99567 6.67569 6.23915C6.82617 5.48262 7.19761 4.78771 7.74303 4.24228C8.28846 3.69686 8.98337 3.32542 9.7399 3.17494C10.4964 3.02446 11.2806 3.10169 11.9932 3.39687C12.7058 3.69205 13.3149 4.19192 13.7435 4.83328C14.172 5.47463 14.4008 6.22865 14.4008 7C14.3996 8.03398 13.9883 9.02527 13.2572 9.75641C12.526 10.4875 11.5347 10.8988 10.5007 10.9Z" fill="#090909"/>
</svg>
