<?xml version="1.0" encoding="UTF-8"?>
<svg id="Capa_2" data-name="Capa 2" xmlns="http://www.w3.org/2000/svg" viewBox="0 0 381.29 538.93">
  <defs>
    <style>
      .cls-1, .cls-2 {
        fill: none;
      }

      .cls-1, .cls-2, .cls-3, .cls-4 {
        stroke: #1d1d1b;
        stroke-miterlimit: 10;
      }

      .cls-1, .cls-4 {
        stroke-width: 6px;
      }

      .cls-3, .cls-4, .cls-5 {
        fill: #1d1d1b;
      }
    </style>
  </defs>
  <g id="Draw">
    <path class="cls-1" d="m304.48,263.32c44.64,33.48,56.39,64.27,56.39,64.27-161.97,234.05-351.24,16.46-350.88,16.32-5.73-11.1,42.37-62.6,44.16-72.73-85.71-87.13,27.02-92.83,45.51-91.03,1.53.15,2.42.35,2.49.56-1.44-11.04,221.76,68.16,221.76,68.16-22.85-71.66,30.91-187.3,32.16-186.72,14.01-16.1-170.05-104.8-244.32-28.8,0,0,19.59,83.34-11.61,145.26"/>
    <ellipse class="cls-3" cx="211.08" cy="293.51" rx="12" ry="16.32"/>
    <ellipse class="cls-3" cx="165.48" cy="291.59" rx="16.32" ry="12" transform="translate(-156.33 385.66) rotate(-76.72)"/>
    <line class="cls-4" x1="73.64" y1="255.91" x2="35.66" y2="298.66"/>
    <path class="cls-1" d="m323.92,248.87s85.56,16.45,10.14,37.99"/>
    <path class="cls-1" d="m318.28,209.99s-64.58-81.34-212.76-41.51"/>
    <line class="cls-2" x1="136.6" y1="161.69" x2="177.72" y2="198.41"/>
    <path class="cls-2" d="m198.88,158.27s43.92,56.52,43.56,60.48"/>
    <path class="cls-2" d="m265.15,171.84s35.98,43.42,36.7,69.28"/>
    <line class="cls-2" x1="158.87" y1="229.09" x2="218.63" y2="241.12"/>
    <path class="cls-1" d="m17.08,352.67s-9.72,82.08,49.68,43.2"/>
    <path class="cls-1" d="m93.85,409.7s13.91,83.1,65.52,24.83"/>
    <path class="cls-1" d="m212.07,434.58s60.02,56.41,73.93-28.25"/>
    <path class="cls-1" d="m356.58,333.76s6.46,26.81-3.37,43.46c-5.9,9.99-22.6,16.24-45.13,10.93"/>
    <path class="cls-5" d="m344.32,459.83c1.86-.36,2.08-8.54,2.35-10.42.83-10.79,1.63-22.63,2.66-33.35,1.47-14.9,3.15-29.72,6.47-44.4.78,7.53.9,15.04.78,22.54-.5,18.74-2.07,37.6-7.03,55.75-.72,2.06-2.8,9.99-5.23,9.88h0Z"/>
    <path class="cls-5" d="m22.48,395.58c3.21,22.57,8.58,44.64,12.14,67.16.51,3.24,1.03,6.48,1.3,9.81-1.55-2.95-2.83-5.99-4.14-9.03-7.71-19.7-13.9-47.01-9.3-67.94h0Z"/>
    <path class="cls-1" d="m27.82,448.71l-24.54,20.97s-3.34,30.72,13.21,42.24h51.15"/>
    <path class="cls-1" d="m139.35,521.28c-.25-.91,51.63,13.96,93.96-1.62"/>
    <path class="cls-1" d="m350.05,445.19l25.23,18s11.39-5.6-10.14,35.28l-55.18,6.1"/>
    <path class="cls-5" d="m69.04,487.91c-1.06,10.72-.85,24.12,7.86,31.34,8.55,7,20.1,9.87,31.06,9.93,11.78-.03,24.66-3.48,32.13-13.05,2.54-3.69,3.34-8.09,3.85-12.59.63-5.73.58-11.66.95-17.55,1.3,8.83,3.08,17.87,1.18,26.86-.7,3.12-2.26,6.23-4.37,8.65-12.58,14.5-34.61,16.41-51.95,10.69-7.26-2.55-14.61-6.67-19.13-13.19-5.87-9.21-4.79-21.27-1.57-31.09h0Z"/>
    <path class="cls-5" d="m30.58,442.31c5.87,7.35,11.81,14.65,18.1,21.65,3.22,3.27,17.91,20.75,22.09,14.42-.57,3.17-1.12,6.36-1.73,9.52.32-2.92.7-5.83,1.07-8.74l.44.21c-.86,1-2.32,1.18-3.53.9-11.06-3.11-29.54-28.08-36.44-37.98h0Z"/>
    <path class="cls-2" d="m145.47,506.15s38.53,6.67,83.89-4.56"/>
    <path class="cls-5" d="m309.36,489.73c1.41,10.34,4.27,22.82-1.05,32.53-4.02,6.45-10.67,10.96-17.62,13.53-17.2,6.13-38.87,3.42-52.48-9.31-2.33-2.17-4.22-5.06-5.34-8.03-3.22-8.64-2.16-18.36.65-26.79-1.05,10.72-.84,24.11,7.86,31.34,8.55,7,20.11,9.87,31.05,9.94,12-.04,25.53-3.62,32.65-13.86,2.15-3.52,2.85-7.61,3.33-11.79.62-5.73.57-11.66.94-17.55h0Z"/>
    <path class="cls-5" d="m350.05,429.66c-10.18,11.03-20.61,21.82-31.14,32.5-3.52,3.55-7.01,7.13-10.58,10.64l.1-.27c.28,4.28.74,12.91.93,17.2-.45-4.28-1.28-12.86-1.64-17.14-.02-.19-.02-.14.1-.27,3.43-3.64,6.94-7.21,10.41-10.8,10.45-10.76,21.01-21.43,31.82-31.84h0Z"/>
    <path class="cls-2" d="m58.47,402.95s35.71,21.6,35.38,20.16"/>
    <path class="cls-2" d="m154,442.31s24,17.76,66.24,2.88"/>
    <path class="cls-2" d="m286,413.07s10.68-.86,34.2-21.33"/>
    <line class="cls-2" x1="37.6" y1="248.87" x2="68.92" y2="257.63"/>
    <line class="cls-2" x1="341.08" y1="254.58" x2="301.84" y2="254.58"/>
    <line class="cls-2" x1="183.92" y1="203.45" x2="234.94" y2="231.52"/>
    <path class="cls-2" d="m145.6,14.41s9.22,40.5-9.86,144.54"/>
    <path class="cls-2" d="m198.88,5.03l.2,24.96s33.16,5.28,51.88,40.8c0,0,18.72,42.72,23.52,56.16,0,0,22.05,30.75,44.43,42.75"/>
    <path class="cls-1" d="m313.37,310.42c-5.45,38.56-38.9,65.72-74.72,60.66-24.94-3.53-44.46-21.74-52.17-45.5-11.5,32.19-40.63,53.22-71.25,48.9-35.82-5.06-60.1-42.91-54.22-84.54,5.88-41.62,39.68-71.27,75.5-66.21,25.42,3.58,45.03,23.68,52.17,49.93,11.77-28.37,39.91-46.43,69.69-42.22,35.82,5.06,60.44,40.42,55,78.98Z"/>
  </g>
</svg>