<?xml version="1.0" encoding="UTF-8"?>
<svg id="Capa_2" data-name="Capa 2" xmlns="http://www.w3.org/2000/svg" viewBox="0 0 461.18 347.99">
  <defs>
    <style>
      .cls-1 {
        fill: #67b43f;
      }

      .cls-2 {
        fill: #fff;
      }

      .cls-3 {
        fill: #e8dd13;
      }

      .cls-4, .cls-5 {
        fill: none;
        stroke: #1d1d1b;
        stroke-miterlimit: 10;
      }

      .cls-6 {
        fill: #298034;
      }

      .cls-7 {
        opacity: .15;
      }

      .cls-8 {
        fill: #f7eb74;
      }

      .cls-5 {
        stroke-width: 2px;
      }

      .cls-9 {
        fill: #1d1d1b;
      }
    </style>
  </defs>
  <g id="Draw">
    <g>
      <path class="cls-3" d="m320.14,141.78l-17.61,8.9-14.45,9.7-18.69,22.8-12.82,19.59-2.29,14.4-3.71,17.67.45,8.37,1.31,9.05,3.14,12.69,5.11,13.32,7.92,15.06,7.54,8.76,10.91,11.22,21.51,13.36s29.43,17.02,48.87,15.12,52.17,3.28,87.11-47.61,0-114.03,0-114.03c0,0-25.44-40.91-68.93-45.17s-50.54,5.34-50.54,5.34l4.42,5.15s17.73-7.17,34.07-5.07,21.07,3.27,21.07,3.27l6.38,2.02,4.92,1.91,6.46,3.02,7.14,4.08,5.08,3.44,6.92,5.52,6.66,6.42,4.51,5.13,2.38,3.01,2.46,3.64,2.39,3.37,1.65,2.94,1.72,3.15.48.78,1.76,3.57,1.39,3.01.93,2.19,1.05,2.7,1.14,3.15,1.67,5.31.46,1.74.81,3.4.21.99.28,1.14.44,2.34.59,3.89.42,3.68.14,1.87.19,3.02.06,2.07.02,4.13-.06,3.12-.1,2.15-.42,4.96-.21,1.76-.73,4.79-.81,3.84-.77,3.28-1.31,4.7-1.35,3.95-1.4,3.77-1.2,2.77-2,4.38-1.73,3.36-1.69,2.92-2.3,3.78-2.84,4.22-3.17,4.16-4.92,5.82-2.67,2.73-3.46,3.24-7.58,6.3-7.82,4.93-8.34,4.34-10.78,4.15-10.15,2.57-13.05,1.68-9.31-.12-14.76-1.77-15.12-4.52-11.14-5.7-10.46-7.6-10.71-8.96-7.9-9.22-5.28-7.29-4.88-8.77-4.57-10.38-3.96-13.97-1.69-14.8-.07-10.09,2.09-16.76,3.56-12.71,4.9-11.11,5.47-9.38,7.23-10.43,7.86-7.91s20.88-17.18,21.5-15.72,12.23-5.28,12.23-5.28l-4.42-5.15"/>
      <polyline class="cls-3" points="240.26 27.46 258.49 22.36 275.61 22.97 298.14 25.89 323.84 32.69 339.75 40.63 355.36 49.33 371.33 60.38 389.53 82.02 400.87 99.3 411.81 107.82 426.18 117.97 427.57 123.24 426.52 130.15 422.62 136.33 413.13 144.05 408.91 146.64 390.67 139.68 366.01 134.02 349.91 134.51 338.9 136.23 317.68 142.48 300.94 151.63 289.75 159.06 279.15 170.9 268.84 184.94 261.32 195.9 256.1 203.45 256.91 180.16 252.85 149.46 239.4 112.9 231.17 100.95"/>
      <path class="cls-3" d="m201.34,22.33l3.78.74v6.93l29.94,24.06,2.29,10.92s-.44,21.67-6.17,35.98c0,0-27.05-29.69-49.75-31.51"/>
      <path class="cls-6" d="m215.23,2.44s4.44-3.7,5.4,1.22-2.46,11.34-2.46,11.34l-8.28.9"/>
      <polyline class="cls-1" points="202.83 18.04 202.47 20.34 205.12 23.07 205.21 30.36 233.35 52.15 275.95 78.06 310.65 94.91 314.51 97.4 297.21 79.87 259.49 45.37 237.38 25.81 225.06 17.26 214.15 15.9 206.08 18.86 203.72 19.02 202.83 18.04"/>
      <path class="cls-6" d="m247.13,34.35l54.02-5.07,28.15,11.63,9.11,6.71s30.24,25.58-7.38,65.36"/>
      <path class="cls-6" d="m200.33,18.48l-8.02-6.06-17.97-6.11-26.19-3.88-29.53,3.23-25.26,9.71-19.83,12.66-13.22,11.27-14.15,15.2-12.5,17.5-11.7,19.28-6.37,12.16S-1.61,142.26,1.03,152.58s0,0,0,0l66.08-17.67,29.89-11.2,36.71-21.13,30.73-21.32,23.83-18.63s9.95.68,14.2-42.29"/>
      <path class="cls-3" d="m53.97,140.2l-15.17,32.44-8.37,37.31,1.08,32.47,6.03,21.71,8.13,16.52,24.41,30.05,9.44,14.68,3.92,16.42,5.15,4.32,6.76.87,7.05-.9,11.01-5.76,13.38-6.67,24.97.68,25.82-7.15,15.06-9.43,17.9-15.48,17.49-20.97,12.98-22.17,6.45-15.54s15.36-52.01,8.43-76.01-7.74-79.12-72.5-97.64c-64.76-18.52,0,0,0,0l-4.41.19-10.03,7.75-16.44,12.02-18.8,12.68-25.6,15.3-22.7,11.31-24.91,7.79"/>
      <path class="cls-8" d="m333.43,153.38l27.48-3.92,27.17,4.78s33.07,13.82,42.79,32.78,18.36,25.49,14.97,67.34,0,0,0,0c0,0-3.55,19.54-15.62,38.08s-44.86,31.96-48.61,32.33-15.66,5.96-44.37-.67-43.86-27.88-43.86-27.88c0,0-22.53-20.52-21.24-51.84,3.25-30.15,2.25-30.36,2.25-30.36,0,0,13.5-35,28.47-43.3,14.97-8.3,0,0,0,0l11.45-8.41"/>
      <path class="cls-7" d="m205.63,289.96c-21.44,20.85-45.41,30.99-78.51,34.76-11.19,1.27,44.68-18,65.86-40.53,20.48-21.79-3.05,6.21,42.45-49.71,7.11-8.73-8.35,34.64-29.79,55.49Z"/>
      <circle class="cls-2" cx="362.05" cy="235.92" r="9.78"/>
      <path class="cls-5" d="m361.19,134.91c-55.97,0-101.35,46.31-101.35,103.45,0,36.13,18.15,67.93,45.65,86.41.01.01.02.02.03.02,15.97,10.76,35.11,17.01,55.67,17.01,55.98,0,98.99-47.34,98.99-104.48s-43.01-102.41-98.99-102.41Zm80.17,135.51c-.55,1.44-1.14,2.85-1.77,4.25-.31.71-.64,1.41-.97,2.1-.31.64-.62,1.27-.94,1.9-.24.5-.49.99-.76,1.49-2.41,4.57-5.21,8.9-8.37,12.95h0c-5.66,7.32-12.44,13.7-20.06,18.89-.43.31-.87.6-1.31.89-1.43.93-2.88,1.83-4.37,2.67-.72.41-1.44.82-2.17,1.22-.75.39-1.5.78-2.27,1.16-.44.23-.88.44-1.33.65-11.32,5.43-23.97,8.47-37.33,8.47-2.45,0-4.88-.11-7.26-.31-.71-.05-1.42-.12-2.12-.2-.28-.03-.55-.07-.83-.1-.34-.03-.68-.08-1.02-.12-.6-.08-1.21-.17-1.81-.26-14.49-2.19-27.82-7.98-39.07-16.46-.18-.12-.35-.24-.52-.39-.78-.59-1.53-1.2-2.29-1.82-.18-.15-.36-.3-.53-.45-.29-.24-.58-.48-.86-.73-14.63-12.43-25.17-29.64-29.3-49.28-.07-.32-.14-.64-.2-.97-.2-.91-.36-1.83-.51-2.75-.03-.15-.06-.3-.08-.46-.05-.26-.09-.52-.13-.78-.68-4.47-1.04-9.06-1.04-13.72,0-15.31,3.82-29.71,10.56-42.29,0-.01,0-.02.01-.03.7-1.3,1.44-2.58,2.2-3.85.59-1,1.21-1.98,1.86-2.96.21-.32.42-.65.65-.98,1.84-2.73,3.83-5.35,5.96-7.85,9.62-11.34,22.04-20.17,36.16-25.42,1.11-.41,2.22-.8,3.35-1.17.29-.09.57-.18.87-.27.07-.02.13-.04.2-.06,1.95-.62,3.92-1.16,5.92-1.62.81-.2,1.63-.37,2.44-.55.12-.02.25-.05.37-.07,5.51-1.11,11.2-1.68,17.02-1.68,9.29,0,18.23,1.47,26.62,4.19.16.05.32.1.47.16,1.37.45,2.74.94,4.09,1.46.09.03.17.07.27.1.2.08.4.15.59.24.99.39,1.96.81,2.93,1.23,13.43,5.93,25.1,15.19,34.02,26.73.16.21.33.42.48.63.35.47.7.94,1.04,1.41.94,1.29,1.84,2.6,2.7,3.93,7.92,12.2,12.96,26.52,14.1,41.92.01.18.04.34.04.51.06.77.1,1.54.13,2.31v.09c.01.22.02.43.03.65.04,1.08.06,2.15.06,3.24,0,10.66-1.85,20.87-5.26,30.35-.21.6-.44,1.21-.66,1.81Z"/>
      <path class="cls-5" d="m370.64,235.93c0,.24-.01.47-.03.7-.04.55-.13,1.08-.26,1.59-.03.09-.05.19-.08.28,0,.01-.01.03-.01.04-.02.08-.04.15-.07.23-.06.18-.12.36-.19.53-.24.62-.55,1.19-.91,1.73h0c-.05.08-.09.14-.15.2-.06.1-.14.2-.22.3-.04.06-.08.12-.14.18-.05.07-.1.13-.15.18-.1.11-.19.21-.28.31-.01.01-.03.03-.04.04-.1.12-.21.23-.33.33l-.28.26-.11.1c-.17.15-.34.28-.51.4-.12.09-.25.18-.37.25-.04.03-.07.06-.11.08-.17.11-.35.22-.53.31-.14.08-.29.16-.44.23-.03.02-.07.04-.11.05-.23.11-.47.21-.71.3h0c-.14.05-.29.1-.44.15-.15.05-.31.09-.47.13-.28.07-.56.13-.84.17-.2.03-.4.05-.6.07-.26.03-.53.04-.8.04-.12,0-.22,0-.33-.01h-.1c-.2-.01-.4-.03-.59-.05-.14-.02-.27-.04-.41-.06-.19-.03-.39-.06-.58-.1-.03-.01-.05-.01-.08-.02-.21-.05-.43-.11-.64-.17-.18-.06-.35-.13-.52-.19-.14-.05-.27-.1-.41-.16-.17-.07-.35-.16-.52-.25-.14-.07-.27-.14-.41-.22-.03-.02-.06-.03-.09-.05-.27-.16-.53-.33-.78-.52-.05-.04-.11-.08-.16-.12-.2-.15-.4-.32-.59-.49-.21-.19-.4-.39-.59-.6-.14-.16-.28-.32-.41-.49-.1-.12-.19-.24-.27-.37-.08-.09-.15-.19-.21-.29-.03-.05-.07-.11-.1-.16-.11-.18-.22-.36-.32-.55-.13-.24-.25-.49-.36-.74-.2-.49-.36-1-.48-1.52-.01-.03-.01-.05-.02-.08-.03-.09-.05-.19-.06-.28-.02-.1-.04-.2-.05-.29-.03-.16-.05-.31-.06-.46-.03-.31-.05-.62-.05-.94,0-.34.02-.67.05-1,.03-.26.07-.52.12-.77.04-.2.09-.4.14-.59.06-.22.13-.44.2-.66.08-.21.16-.42.25-.62h0c.04-.12.09-.23.15-.33.04-.11.1-.22.16-.33.08-.17.17-.32.28-.48.01-.03.03-.06.06-.09.05-.09.11-.18.17-.27.07-.1.13-.2.2-.29.07-.1.13-.19.21-.28.02-.02.03-.04.05-.06.06-.08.12-.15.19-.22.04-.06.1-.12.15-.17.02-.03.05-.06.08-.09.02-.03.05-.06.08-.09s.06-.07.1-.1c.16-.17.33-.33.51-.48.17-.15.36-.29.54-.43.14-.11.28-.21.42-.31.21-.13.42-.26.64-.38.16-.09.32-.18.49-.25.16-.08.32-.15.49-.22.06-.02.12-.05.19-.07.02-.01.04-.02.06-.02.07-.03.15-.06.23-.08.02-.01.05-.02.08-.03.06-.02.12-.04.18-.06.07-.02.13-.04.19-.06.14-.04.28-.08.42-.11.13-.03.27-.07.41-.09.03-.01.05-.02.08-.02.53-.09,1.07-.14,1.62-.14.66,0,1.31.07,1.93.21.21.04.4.09.6.15.05.02.11.03.16.05.25.07.5.16.74.26.2.08.39.16.58.26.04.02.07.03.1.05.04.01.08.03.11.05.11.06.23.12.34.19.02.01.03.02.05.03.23.13.45.27.66.42.11.07.22.15.33.24.13.09.26.2.38.31.19.15.37.32.54.5l.18.18c.06.06.12.13.18.2s.13.15.19.22c.08.09.15.19.22.28.11.13.2.25.29.39.14.21.28.43.41.65,0,.01.01.01.01.02.12.21.23.44.34.67.19.4.35.82.47,1.26.03.12.07.24.1.36.01.03.02.07.03.12.02.07.04.13.05.2,0,.02.01.03.01.05.01.05.02.11.03.16.02.08.03.15.04.23.03.18.06.37.07.56.01.1.02.2.02.31.02.2.03.4.03.61Z"/>
      <path class="cls-5" d="m359.75,226.63c-.15.02-.3.07-.44.1-.15.03-.3.07-.45.12-.06.02-.13.04-.2.06-.07.02-.13.05-.2.07-.03,0-.06.02-.08.03-.09.02-.17.05-.25.09-.02,0-.04.01-.06.02-.08.02-.14.05-.21.07-.18.08-.35.15-.52.24-.18.08-.36.17-.53.27-.23.13-.46.27-.68.41-.15.11-.3.22-.45.34-.2.15-.4.3-.58.46-.19.16-.38.34-.55.52-.04.03-.07.08-.11.11-.03.03-.06.06-.08.1-.03.03-.07.06-.09.09-.05.06-.12.12-.16.19-.07.07-.14.15-.2.24-.02.02-.03.04-.06.06l-.28-.14-33.75-16.25-37.12-17.86s0-.02.01-.03c.7-1.3,1.44-2.58,2.2-3.85.59-1,1.21-1.98,1.86-2.96.21-.32.42-.65.65-.98,1.84-2.73,3.83-5.35,5.96-7.85,9.62-11.34,22.04-20.17,36.16-25.42,1.11-.41,2.22-.8,3.35-1.17.29-.09.57-.18.87-.27.07-.02.13-.04.2-.06l12.42,35.28,2.28,6.44,8.66,24.6,2.43,6.93Z"/>
      <path class="cls-5" d="m355.24,242.9l-26.49,32.36-25.35,30.96c-14.63-12.43-25.17-29.64-29.3-49.28-.07-.32-.14-.64-.2-.97-.2-.91-.36-1.83-.51-2.75-.03-.15-.06-.3-.08-.46l37-6.92,41.98-7.86c.13.54.3,1.07.52,1.58.12.26.25.52.39.77.1.2.22.39.34.58.03.05.08.11.11.16.06.11.14.21.22.31.09.13.19.26.29.38.14.18.29.35.45.51.2.22.4.43.63.63Z"/>
      <path class="cls-5" d="m400.64,316.78c-.75.39-1.5.78-2.27,1.16-.44.23-.88.44-1.33.65-11.32,5.43-23.97,8.47-37.33,8.47-2.45,0-4.88-.11-7.26-.31-.71-.05-1.42-.12-2.12-.2l5.41-40.68,5.38-40.54c.11.01.21.01.33.01.27,0,.54-.01.8-.04.2-.02.4-.04.6-.08.28-.04.56-.1.84-.18.16-.04.32-.09.47-.14.15-.05.3-.11.44-.16h0c.24-.1.48-.21.71-.33.04-.01.08-.03.11-.05.15-.08.3-.16.44-.25.18-.1.36-.21.53-.33.04-.03.07-.06.11-.09.12-.08.25-.17.37-.27.17-.13.34-.27.51-.43l.11-.11.28-.28c.12-.11.23-.23.33-.36.01,0,.03-.03.04-.04l16.95,38.92,15.54,35.66Z"/>
      <path class="cls-5" d="m430.22,185.61l-26.41,18.95-35.22,25.28c-.07-.07-.13-.15-.2-.21l-.2-.19c-.19-.2-.39-.38-.6-.54-.14-.11-.28-.23-.42-.33-.13-.09-.25-.18-.37-.25-.23-.16-.48-.31-.73-.45-.03,0-.04-.02-.06-.03l14.16-39.74,11.58-32.49c.99.39,1.96.81,2.93,1.23,13.43,5.93,25.1,15.19,34.02,26.73.16.21.33.42.48.63.35.47.7.94,1.04,1.41Z"/>
      <path class="cls-5" d="m447.28,238.26c0,10.66-1.85,20.87-5.26,30.35-.21.6-.44,1.21-.66,1.81-.55,1.44-1.14,2.85-1.77,4.25l-33.7-17.74-35.54-18.71c.14-.51.24-1.04.28-1.59.02-.23.03-.46.03-.7,0-.21-.01-.41-.03-.61,0-.11-.01-.21-.02-.31,0-.19-.04-.38-.08-.56-.01-.08-.02-.15-.04-.23,0-.05-.02-.11-.03-.16l41.92.17,34.81.14c.01.22.02.43.03.65.04,1.08.06,2.15.06,3.24Z"/>
      <path class="cls-5" d="m325.34,105.94c-9.33-9.77-25.29-23.17-40.65-37.51-25.94-24.21-54.36-49.01-55.26-49.23-17.1-8.73-24.21.54-24.21.54-17.82-13.5-47.22-16.44-47.22-16.44C84.31-6.06,39.19,63.78,39.19,63.78-1.61,122.82,1.03,152.58,1.03,152.58c49.8-12.84,77.64-20.52,77.64-20.52,55.25-22.5,112.1-71.64,112.56-71.88,11.64-13.8,10.08-38.4,10.08-38.4l3.9.66s-.54,2.52,0,7.92c0,0,29.34,28.14,85.98,54.3,0,0,31.38,13.56,39.84,28.32,0,0,59.52-58.2-29.88-83.7,0,0-53.4,6.66-54.96,4.26"/>
      <path class="cls-5" d="m217.93,15.55c1.5-3.11,2.7-11.89,2.7-11.89-1.44-5.16-5.4-1.22-5.4-1.22,0,0-1.08,7.1-6.54,14.66"/>
      <path class="cls-5" d="m55.1,138.42s-64.39,96.24,12.41,169.2c0,0,12.96,15.12,12,17.76,0,0-1.32,17.64,10.68,21.36,0,0,9.48,1.2,14.76-1.68,0,0,16.02-9.06,17.28-9.42s9.27-3.15,14.76-1.44c0,0,18.36,1.71,25.92-2.43,0,0,21.6-5.19,25.56-11.19,0,0,50.4-30.48,64.44-96.36,14.04-65.88-8.61-140.56-72.71-155.06"/>
      <path class="cls-5" d="m409.18,147.16c4.8-3.67,16-12.94,16-12.94,5.4-14.22,0-17.28,0-17.28-5.76-2.7-24.3-17.64-24.3-17.64-15.12-24.84-26.82-36.54-26.82-36.54-13.86-12.78-41.34-25.62-41.34-25.62-19.68-12.72-65.4-14.76-65.4-14.76-13.8-1.68-27.69,5.38-27.69,5.38"/>
      <path class="cls-5" d="m392.61,139.95s-29.17-15.45-76.21,3.03c0,0-25.68,13.2-31.8,20.76,0,0-25.37,32.78-28.7,41.77"/>
      <path class="cls-5" d="m250.56,234.3s-2.08,61.27,54.93,90.47"/>
      <ellipse class="cls-4" cx="359.83" cy="239.16" rx="95.4" ry="98.82"/>
      <path class="cls-5" d="m190.55,11.57s11.84,7.53,13.4,10.55"/>
      <path class="cls-9" d="m203.72,21.72c-6.52-1.58-14.07-1.75-19.68,2.4-3.4,2.52-25.17,16.11-29.26,18.71-42.95,27.32-85.8,54.89-126.94,84.88-3.67,2.8-7.44,5.54-10.48,9.03,5.76-7.3,13.47-12.8,20.6-18.68,44.92-32.37,92.47-62.09,139.25-91.76,0,0,6.01-3.49,6.01-3.49.5-.29.99-.59,1.55-.85,5.84-3.01,12.99-2.24,18.95-.23h0Z"/>
      <path class="cls-5" d="m231.17,101.83c11.98-40.67,2.95-49.15,2.95-49.15"/>
      <path class="cls-9" d="m104.77,327.18c3.67,2.13,7.79,2.94,11.86,3.86,4.11.79,8.28,1.38,12.43,2,1.2.18,2.4.35,3.61.61-8.6,1.12-21.63.16-27.9-6.47h0Z"/>
    </g>
  </g>
</svg>