<?xml version="1.0" encoding="UTF-8"?>
<svg id="Capa_2" data-name="Capa 2" xmlns="http://www.w3.org/2000/svg" viewBox="0 0 372.91 126.08">
  <defs>
    <style>
      .cls-1 {
        fill: none;
        stroke: #fff;
        stroke-miterlimit: 10;
      }

      .cls-2 {
        isolation: isolate;
      }

      .cls-3 {
        fill: #5c2362;
      }

      .cls-4 {
        fill: #872b86;
      }

      .cls-5 {
        fill: #d2d700;
      }

      .cls-6 {
        fill: #5c2260;
      }
    </style>
  </defs>
  <g id="Capa_2-2" data-name="Capa 2">
    <g id="Text">
      <g>
        <polyline class="cls-4" points="329.89 7.55 320.62 .49 319.18 7.55"/>
        <polyline class="cls-4" points="372.82 7.55 363.73 .49 361.98 7.55"/>
        <polyline class="cls-4" points="345.91 126.08 336.91 119.08 345.91 118.04"/>
        <polyline class="cls-4" points="304.09 126.08 295.15 119.08 304.09 117.02"/>
        <polyline class="cls-4" points="253.33 126.08 244.33 119.08 253.33 116.54"/>
        <polyline class="cls-4" points="284.13 7.49 275.08 .51 273.8 7.49"/>
        <polyline class="cls-4" points="240.61 7.49 231.61 .5 230.02 7.49"/>
        <polyline class="cls-4" points="178.15 126.08 169.12 119.08 178.15 117.53"/>
        <polyline class="cls-4" points="192.8 7.51 183.78 .5 183.98 7.51"/>
        <polyline class="cls-4" points="148.9 7.49 139.78 .44 137.89 7.49"/>
        <polyline class="cls-4" points="82.96 7.52 73.92 .52 71.2 7.52"/>
        <polyline class="cls-4" points="40.3 7.55 31.3 .53 30.52 7.55"/>
        <polyline class="cls-4" points="147.57 53.72 138.55 46.73 138.13 53.72 147.57 53.72"/>
        <polyline class="cls-4" points="150.95 102.37 141.9 95.33 141.25 102.37 150.95 102.37"/>
        <polyline class="cls-4" points="97.51 126.08 88.51 119.08 97.51 117.4 97.51 126.08"/>
        <polyline class="cls-4" points="52.84 126.08 43.84 119.08 52.84 117.11 52.84 126.08"/>
        <polyline class="cls-4" points="9.54 126.08 .47 119.08 13.63 115.94 9.54 126.08"/>
        <g class="cls-2">
          <g class="cls-2">
            <path class="cls-4" d="m83,7.5l-17.69,53.54,19.37,65.04h-31.86l-12.49-50.83v50.83H9.5V7.5h30.83v46.07L54.07,7.5h28.93Z"/>
            <path class="cls-4" d="m97.49,7.5h51.42v23.73h-20.58v22.49h19.26v22.56h-19.26v26.07h22.63v23.73h-53.47V7.5Z"/>
            <path class="cls-4" d="m240.64,7.5l-15.69,118.58h-46.84L160.29,7.5h32.52c3.78,32.66,6.48,60.3,8.09,82.91,1.59-22.85,3.28-43.14,5.07-60.86l2.14-22.05h32.52Z"/>
            <path class="cls-4" d="m284.17,7.5v118.58h-30.83V7.5h30.83Z"/>
            <path class="cls-4" d="m372.9,7.5v118.58h-27.03l-16.04-53.91v53.91h-25.78V7.5h25.78l17.29,53.39V7.5h25.78Z"/>
          </g>
        </g>
        <polygon class="cls-3" points="40.33 126.08 31.27 119.08 .47 119.08 9.54 126.08 40.33 126.08"/>
        <polygon class="cls-3" points="84.69 126.08 75.67 119.08 43.84 119.08 52.84 126.08 84.69 126.08"/>
        <polygon class="cls-3" points="151.03 126.08 141.95 119.08 88.51 119.08 97.51 126.08 151.03 126.08"/>
        <polygon class="cls-3" points="224.95 126.08 215.92 119.08 169.12 119.08 178.15 126.08 224.95 126.08"/>
        <polygon class="cls-3" points="284.26 126.08 275.17 119.08 244.33 119.08 253.33 126.08 284.26 126.08"/>
        <polygon class="cls-3" points="329.89 126.08 320.83 119.08 295.15 119.08 304.09 126.08 329.89 126.08"/>
        <polygon class="cls-3" points="372.91 126.08 363.9 119.08 336.91 119.08 345.91 126.08 372.91 126.08"/>
        <polygon class="cls-3" points="147.57 76.22 138.55 69.38 119.38 69.38 128.47 76.22 147.57 76.22"/>
        <polygon class="cls-6" points="148.9 31.31 139.9 24.29 119.34 24.29 128.34 31.21 148.9 31.31"/>
        <g class="cls-2">
          <g class="cls-2">
            <path class="cls-5" d="m74,.5l-17.69,53.54,19.37,65.04h-31.86l-12.49-50.83v50.83H.5V.5h30.83v46.07L45.07.5h28.93Z"/>
            <path class="cls-5" d="m88.49.5h51.42v23.73h-20.58v22.49h19.26v22.56h-19.26v26.07h22.63v23.73h-53.47V.5Z"/>
            <path class="cls-5" d="m231.64.5l-15.69,118.58h-46.84L151.29.5h32.52c3.78,32.66,6.48,60.3,8.09,82.91,1.59-22.85,3.28-43.14,5.07-60.86l2.14-22.05h32.52Z"/>
            <path class="cls-5" d="m275.17.5v118.58h-30.83V.5h30.83Z"/>
            <path class="cls-5" d="m363.9.5v118.58h-27.03l-16.04-53.91v53.91h-25.78V.5h25.78l17.29,53.39V.5h25.78Z"/>
          </g>
          <g class="cls-2">
            <path class="cls-1" d="m74,.5l-17.69,53.54,19.37,65.04h-31.86l-12.49-50.83v50.83H.5V.5h30.83v46.07L45.07.5h28.93Z"/>
            <path class="cls-1" d="m88.49.5h51.42v23.73h-20.58v22.49h19.26v22.56h-19.26v26.07h22.63v23.73h-53.47V.5Z"/>
            <path class="cls-1" d="m231.64.5l-15.69,118.58h-46.84L151.29.5h32.52c3.78,32.66,6.48,60.3,8.09,82.91,1.59-22.85,3.28-43.14,5.07-60.86l2.14-22.05h32.52Z"/>
            <path class="cls-1" d="m275.17.5v118.58h-30.83V.5h30.83Z"/>
            <path class="cls-1" d="m363.9.5v118.58h-27.03l-16.04-53.91v53.91h-25.78V.5h25.78l17.29,53.39V.5h25.78Z"/>
          </g>
        </g>
      </g>
    </g>
  </g>
</svg>